
<?xml version="1.0" encoding="UTF-8"?>
<!DOCTYPE svg PUBLIC "-//W3C//DTD SVG 1.1//EN" "http://www.w3.org/Graphics/SVG/1.1/DTD/svg11.dtd">
<svg xmlns="http://www.w3.org/2000/svg" version="1.1" width="730px" height="212px" style="shape-rendering:geometricPrecision; text-rendering:geometricPrecision; image-rendering:optimizeQuality; fill-rule:evenodd; clip-rule:evenodd" xmlns:xlink="http://www.w3.org/1999/xlink">
<g><path style="opacity:1" fill="#f3f3f3" d="M 0.5,-0.5 C 243.167,-0.5 485.833,-0.5 728.5,-0.5C 728.5,70.1667 728.5,140.833 728.5,211.5C 485.833,211.5 243.167,211.5 0.5,211.5C 0.5,140.833 0.5,70.1667 0.5,-0.5 Z"/></g>
<g><path style="opacity:1" fill="#080808" d="M 271.5,26.5 C 271.5,38.5 271.5,50.5 271.5,62.5C 271.5,68.1667 271.5,73.8333 271.5,79.5C 263.836,79.8886 256.17,80.222 248.5,80.5C 247.89,79.609 247.557,78.609 247.5,77.5C 247.784,75.5853 247.451,73.9187 246.5,72.5C 246.5,72.1667 246.5,71.8333 246.5,71.5C 247.833,70.5 247.833,69.5 246.5,68.5C 246.5,68.1667 246.5,67.8333 246.5,67.5C 247.833,66.5 247.833,65.5 246.5,64.5C 246.5,64.1667 246.5,63.8333 246.5,63.5C 244.622,62.6196 241.955,62.1196 238.5,62C 238.779,59.5822 238.779,57.0822 238.5,54.5C 238.978,51.6468 239.311,48.6468 239.5,45.5C 236.914,44.52 234.247,44.1866 231.5,44.5C 230.308,45.6256 230.308,48.6256 231.5,53.5C 230.319,56.3623 230.319,59.3623 231.5,62.5C 230.167,63.5 230.167,64.5 231.5,65.5C 231.5,65.8333 231.5,66.1667 231.5,66.5C 230.167,67.5 230.167,68.5 231.5,69.5C 231.5,69.8333 231.5,70.1667 231.5,70.5C 230.167,71.5 230.167,72.5 231.5,73.5C 230.314,74.9613 230.314,76.2946 231.5,77.5C 231.5,77.8333 231.5,78.1667 231.5,78.5C 231.5,90.5 231.5,102.5 231.5,114.5C 234.167,114.5 236.833,114.5 239.5,114.5C 239.5,120.5 239.5,126.5 239.5,132.5C 222.83,132.667 206.163,132.5 189.5,132C 192.5,131.667 195.5,131.333 198.5,131C 187.833,130.333 187.833,129.667 198.5,129C 186.518,128.17 186.518,127.67 198.5,127.5C 198.5,123.167 198.5,118.833 198.5,114.5C 200.833,114.5 203.167,114.5 205.5,114.5C 206.338,114.158 206.672,113.492 206.5,112.5C 206.5,112.167 206.5,111.833 206.5,111.5C 206.5,110.5 206.5,109.5 206.5,108.5C 206.5,108.167 206.5,107.833 206.5,107.5C 206.5,106.5 206.5,105.5 206.5,104.5C 206.5,104.167 206.5,103.833 206.5,103.5C 206.5,102.5 206.5,101.5 206.5,100.5C 206.082,99.7784 205.416,99.2784 204.5,99C 205.416,98.7216 206.082,98.2216 206.5,97.5C 206.5,95.5 206.5,93.5 206.5,91.5C 206.5,91.1667 206.5,90.8333 206.5,90.5C 206.5,89.5 206.5,88.5 206.5,87.5C 206.5,87.1667 206.5,86.8333 206.5,86.5C 206.5,85.5 206.5,84.5 206.5,83.5C 206.5,83.1667 206.5,82.8333 206.5,82.5C 206.5,81.5 206.5,80.5 206.5,79.5C 204.031,78.6829 201.365,78.1829 198.5,78C 209.167,77.3333 209.167,76.6667 198.5,76C 209.167,75.3333 209.167,74.6667 198.5,74C 201.365,73.8171 204.031,73.3171 206.5,72.5C 206.5,71.5 206.5,70.5 206.5,69.5C 206.5,69.1667 206.5,68.8333 206.5,68.5C 206.5,67.5 206.5,66.5 206.5,65.5C 206.082,64.7784 205.416,64.2784 204.5,64C 205.416,63.7216 206.082,63.2216 206.5,62.5C 206.5,60.5 206.5,58.5 206.5,56.5C 206.5,56.1667 206.5,55.8333 206.5,55.5C 206.5,54.5 206.5,53.5 206.5,52.5C 206.5,52.1667 206.5,51.8333 206.5,51.5C 206.5,50.5 206.5,49.5 206.5,48.5C 206.5,48.1667 206.5,47.8333 206.5,47.5C 206.5,46.5 206.5,45.5 206.5,44.5C 201.015,43.6728 195.348,43.1728 189.5,43C 195.167,42.6667 200.833,42.3333 206.5,42C 185.167,41.3333 185.167,40.6667 206.5,40C 200.833,39.6667 195.167,39.3333 189.5,39C 195.348,38.8272 201.015,38.3272 206.5,37.5C 206.5,36.5 206.5,35.5 206.5,34.5C 206.5,34.1667 206.5,33.8333 206.5,33.5C 206.5,32.5 206.5,31.5 206.5,30.5C 206.082,29.7784 205.416,29.2784 204.5,29C 205.167,28.6667 205.833,28.3333 206.5,28C 200.833,27.6667 195.167,27.3333 189.5,27C 192.5,26.6667 195.5,26.3333 198.5,26C 187.833,25.3333 187.833,24.6667 198.5,24C 186.518,23.1698 186.518,22.6698 198.5,22.5C 198.5,18.1667 198.5,13.8333 198.5,9.5C 214.833,9.5 231.167,9.5 247.5,9.5C 247.5,15.1667 247.5,20.8333 247.5,26.5C 250.167,26.5 252.833,26.5 255.5,26.5C 255.5,32.5 255.5,38.5 255.5,44.5C 258.167,44.5 260.833,44.5 263.5,44.5C 263.5,38.5 263.5,32.5 263.5,26.5C 266.167,26.5 268.833,26.5 271.5,26.5 Z"/></g>
<g><path style="opacity:1" fill="#0c0c0c" d="M 296.5,9.5 C 296.383,50.3565 296.383,91.3565 296.5,132.5C 291.167,132.5 285.833,132.5 280.5,132.5C 280.5,126.5 280.5,120.5 280.5,114.5C 282.833,114.5 285.167,114.5 287.5,114.5C 288.833,113.5 288.833,112.5 287.5,111.5C 278.167,111.167 278.167,110.833 287.5,110.5C 288.833,109.5 288.833,108.5 287.5,107.5C 278.167,107.167 278.167,106.833 287.5,106.5C 288.833,105.5 288.833,104.5 287.5,103.5C 278.167,103.167 278.167,102.833 287.5,102.5C 288.833,100.833 288.833,99.1667 287.5,97.5C 287.81,95.1897 287.81,92.8564 287.5,90.5C 278.167,90.1667 278.167,89.8333 287.5,89.5C 288.833,88.5 288.833,87.5 287.5,86.5C 278.167,86.1667 278.167,85.8333 287.5,85.5C 288.833,84.5 288.833,83.5 287.5,82.5C 278.167,82.1667 278.167,81.8333 287.5,81.5C 288.833,78.5 288.833,75.5 287.5,72.5C 278.167,72.1667 278.167,71.8333 287.5,71.5C 288.833,70.5 288.833,69.5 287.5,68.5C 278.167,68.1667 278.167,67.8333 287.5,67.5C 288.833,65.8333 288.833,64.1667 287.5,62.5C 288.022,59.9802 288.022,57.3135 287.5,54.5C 287.978,51.6468 288.311,48.6468 288.5,45.5C 285.914,44.52 283.247,44.1866 280.5,44.5C 279.308,45.6256 279.308,48.6256 280.5,53.5C 279.523,56.2869 279.19,59.2869 279.5,62.5C 276.833,62.5 274.167,62.5 271.5,62.5C 271.5,50.5 271.5,38.5 271.5,26.5C 271.5,20.8333 271.5,15.1667 271.5,9.5C 279.833,9.5 288.167,9.5 296.5,9.5 Z"/></g>
<g><path style="opacity:1" fill="#000000" d="M 296.5,9.5 C 304.5,9.5 312.5,9.5 320.5,9.5C 320.182,14.0323 320.515,18.3656 321.5,22.5C 321.5,22.8333 321.5,23.1667 321.5,23.5C 320.167,24.5 320.167,25.5 321.5,26.5C 321.5,26.8333 321.5,27.1667 321.5,27.5C 318.5,27.5 315.5,27.5 312.5,27.5C 312.5,56.5 312.5,85.5 312.5,114.5C 315.167,114.5 317.833,114.5 320.5,114.5C 320.182,119.032 320.515,123.366 321.5,127.5C 321.5,127.833 321.5,128.167 321.5,128.5C 320.167,129.5 320.167,130.5 321.5,131.5C 321.5,131.833 321.5,132.167 321.5,132.5C 313.167,132.5 304.833,132.5 296.5,132.5C 296.383,91.3565 296.383,50.3565 296.5,9.5 Z"/></g>
<g><path style="opacity:1" fill="#111111" d="M 329.5,9.5 C 334.833,9.5 340.167,9.5 345.5,9.5C 345.383,50.3565 345.383,91.3565 345.5,132.5C 340.167,132.5 334.833,132.5 329.5,132.5C 329.5,126.5 329.5,120.5 329.5,114.5C 331.833,114.5 334.167,114.5 336.5,114.5C 337.833,113.5 337.833,112.5 336.5,111.5C 327.167,111.167 327.167,110.833 336.5,110.5C 337.833,109.5 337.833,108.5 336.5,107.5C 327.167,107.167 327.167,106.833 336.5,106.5C 337.833,105.5 337.833,104.5 336.5,103.5C 327.167,103.167 327.167,102.833 336.5,102.5C 337.833,100.833 337.833,99.1667 336.5,97.5C 336.81,95.1897 336.81,92.8564 336.5,90.5C 327.167,90.1667 327.167,89.8333 336.5,89.5C 337.833,88.5 337.833,87.5 336.5,86.5C 327.167,86.1667 327.167,85.8333 336.5,85.5C 337.833,84.5 337.833,83.5 336.5,82.5C 327.167,82.1667 327.167,81.8333 336.5,81.5C 337.833,78.5 337.833,75.5 336.5,72.5C 327.167,72.1667 327.167,71.8333 336.5,71.5C 337.833,70.5 337.833,69.5 336.5,68.5C 327.167,68.1667 327.167,67.8333 336.5,67.5C 337.833,65.8333 337.833,64.1667 336.5,62.5C 336.81,60.1897 336.81,57.8564 336.5,55.5C 327.167,55.1667 327.167,54.8333 336.5,54.5C 337.833,53.5 337.833,52.5 336.5,51.5C 327.167,51.1667 327.167,50.8333 336.5,50.5C 337.833,49.5 337.833,48.5 336.5,47.5C 327.167,47.1667 327.167,46.8333 336.5,46.5C 337.833,43.5 337.833,40.5 336.5,37.5C 316.5,37.1667 316.5,36.8333 336.5,36.5C 337.833,35.5 337.833,34.5 336.5,33.5C 316.5,33.1667 316.5,32.8333 336.5,32.5C 337.833,30.8333 337.833,29.1667 336.5,27.5C 334.167,27.5 331.833,27.5 329.5,27.5C 329.5,21.5 329.5,15.5 329.5,9.5 Z"/></g>
<g><path style="opacity:1" fill="#101010" d="M 345.5,9.5 C 367.167,9.5 388.833,9.5 410.5,9.5C 410.5,15.1667 410.5,20.8333 410.5,26.5C 413.167,26.5 415.833,26.5 418.5,26.5C 418.5,32.5 418.5,38.5 418.5,44.5C 421.5,44.5 424.5,44.5 427.5,44.5C 427.5,54.8333 427.5,65.1667 427.5,75.5C 427.5,75.8333 427.5,76.1667 427.5,76.5C 426.314,77.7054 426.314,79.0387 427.5,80.5C 426.167,81.5 426.167,82.5 427.5,83.5C 535.5,83.8333 535.5,84.1667 427.5,84.5C 426.167,85.5 426.167,86.5 427.5,87.5C 535.5,87.8333 535.5,88.1667 427.5,88.5C 426.167,89.5 426.167,90.5 427.5,91.5C 535.5,91.8333 535.5,92.1667 427.5,92.5C 426.167,93.5 426.167,94.5 427.5,95.5C 454.502,95.3334 481.502,95.5 508.5,96C 478.488,96.2318 448.488,96.7318 418.5,97.5C 418.5,103.167 418.5,108.833 418.5,114.5C 415.833,114.5 413.167,114.5 410.5,114.5C 410.5,120.5 410.5,126.5 410.5,132.5C 388.833,132.5 367.167,132.5 345.5,132.5C 345.383,91.3565 345.383,50.3565 345.5,9.5 Z"/></g>
<g><path style="opacity:1" fill="#111111" d="M 525.5,9.5 C 530.833,9.5 536.167,9.5 541.5,9.5C 541.383,50.3565 541.383,91.3565 541.5,132.5C 536.167,132.5 530.833,132.5 525.5,132.5C 525.5,126.5 525.5,120.5 525.5,114.5C 527.833,114.5 530.167,114.5 532.5,114.5C 533.833,113.5 533.833,112.5 532.5,111.5C 523.167,111.167 523.167,110.833 532.5,110.5C 533.833,109.5 533.833,108.5 532.5,107.5C 523.167,107.167 523.167,106.833 532.5,106.5C 533.833,105.5 533.833,104.5 532.5,103.5C 523.167,103.167 523.167,102.833 532.5,102.5C 533.833,100.833 533.833,99.1667 532.5,97.5C 532.81,95.1897 532.81,92.8564 532.5,90.5C 523.167,90.1667 523.167,89.8333 532.5,89.5C 533.833,88.5 533.833,87.5 532.5,86.5C 523.167,86.1667 523.167,85.8333 532.5,85.5C 533.833,84.5 533.833,83.5 532.5,82.5C 523.167,82.1667 523.167,81.8333 532.5,81.5C 533.833,78.5 533.833,75.5 532.5,72.5C 523.167,72.1667 523.167,71.8333 532.5,71.5C 533.833,70.5 533.833,69.5 532.5,68.5C 523.167,68.1667 523.167,67.8333 532.5,67.5C 533.833,65.8333 533.833,64.1667 532.5,62.5C 532.81,60.1897 532.81,57.8564 532.5,55.5C 523.167,55.1667 523.167,54.8333 532.5,54.5C 533.833,53.5 533.833,52.5 532.5,51.5C 523.167,51.1667 523.167,50.8333 532.5,50.5C 533.833,49.5 533.833,48.5 532.5,47.5C 523.167,47.1667 523.167,46.8333 532.5,46.5C 533.833,43.5 533.833,40.5 532.5,37.5C 512.5,37.1667 512.5,36.8333 532.5,36.5C 533.833,35.5 533.833,34.5 532.5,33.5C 512.5,33.1667 512.5,32.8333 532.5,32.5C 533.833,30.8333 533.833,29.1667 532.5,27.5C 530.167,27.5 527.833,27.5 525.5,27.5C 525.5,21.5 525.5,15.5 525.5,9.5 Z"/></g>
<g><path style="opacity:1" fill="#0c0c0c" d="M 541.5,9.5 C 565.833,9.5 590.167,9.5 614.5,9.5C 614.182,14.0323 614.515,18.3656 615.5,22.5C 615.5,22.8333 615.5,23.1667 615.5,23.5C 614.167,24.5 614.167,25.5 615.5,26.5C 615.5,26.8333 615.5,27.1667 615.5,27.5C 614.167,28.5 614.167,29.5 615.5,30.5C 615.5,30.8333 615.5,31.1667 615.5,31.5C 614.167,32.5 614.167,33.5 615.5,34.5C 615.5,34.8333 615.5,35.1667 615.5,35.5C 614.167,36.5 614.167,37.5 615.5,38.5C 615.5,38.8333 615.5,39.1667 615.5,39.5C 614.167,40.5 614.167,41.5 615.5,42.5C 615.5,42.8333 615.5,43.1667 615.5,43.5C 596.258,43.6262 576.924,43.6262 557.5,43.5C 557.5,49.5 557.5,55.5 557.5,61.5C 565.5,61.5 573.5,61.5 581.5,61.5C 581.5,55.8333 581.5,50.1667 581.5,44.5C 584.5,44.5 587.5,44.5 590.5,44.5C 590.5,62.1667 590.5,79.8333 590.5,97.5C 587.833,97.5 585.167,97.5 582.5,97.5C 581.98,95.0513 581.647,92.718 581.5,90.5C 570.833,90.1667 570.833,89.8333 581.5,89.5C 582.833,88.5 582.833,87.5 581.5,86.5C 570.833,86.1667 570.833,85.8333 581.5,85.5C 582.833,84.5 582.833,83.5 581.5,82.5C 570.833,82.1667 570.833,81.8333 581.5,81.5C 582.043,81.44 582.376,81.1067 582.5,80.5C 579.355,79.1968 576.355,79.1968 573.5,80.5C 568.946,80.7454 564.446,80.4121 560,79.5C 558.699,79.6387 557.866,80.3054 557.5,81.5C 557.328,82.4916 557.662,83.1583 558.5,83.5C 558.5,83.8333 558.5,84.1667 558.5,84.5C 557.833,84.5 557.5,84.8333 557.5,85.5C 557.328,86.4916 557.662,87.1583 558.5,87.5C 558.5,87.8333 558.5,88.1667 558.5,88.5C 557.833,88.5 557.5,88.8333 557.5,89.5C 557.328,90.4916 557.662,91.1583 558.5,91.5C 558.5,91.8333 558.5,92.1667 558.5,92.5C 557.833,92.5 557.5,92.8333 557.5,93.5C 557.328,94.4916 557.662,95.1583 558.5,95.5C 558.5,95.8333 558.5,96.1667 558.5,96.5C 557.51,102.31 557.177,108.31 557.5,114.5C 560.167,114.5 562.833,114.5 565.5,114.5C 565.5,120.5 565.5,126.5 565.5,132.5C 557.5,132.5 549.5,132.5 541.5,132.5C 541.383,91.3565 541.383,50.3565 541.5,9.5 Z"/></g>
<g><path style="opacity:1" fill="#111111" d="M 623.5,9.5 C 628.833,9.5 634.167,9.5 639.5,9.5C 639.383,50.3565 639.383,91.3565 639.5,132.5C 634.167,132.5 628.833,132.5 623.5,132.5C 623.5,126.5 623.5,120.5 623.5,114.5C 625.833,114.5 628.167,114.5 630.5,114.5C 631.833,113.5 631.833,112.5 630.5,111.5C 621.167,111.167 621.167,110.833 630.5,110.5C 631.833,109.5 631.833,108.5 630.5,107.5C 621.167,107.167 621.167,106.833 630.5,106.5C 631.833,105.5 631.833,104.5 630.5,103.5C 621.167,103.167 621.167,102.833 630.5,102.5C 631.833,100.833 631.833,99.1667 630.5,97.5C 630.81,95.1897 630.81,92.8564 630.5,90.5C 621.167,90.1667 621.167,89.8333 630.5,89.5C 631.833,88.5 631.833,87.5 630.5,86.5C 621.167,86.1667 621.167,85.8333 630.5,85.5C 631.833,84.5 631.833,83.5 630.5,82.5C 621.167,82.1667 621.167,81.8333 630.5,81.5C 631.833,78.5 631.833,75.5 630.5,72.5C 621.167,72.1667 621.167,71.8333 630.5,71.5C 631.833,70.5 631.833,69.5 630.5,68.5C 621.167,68.1667 621.167,67.8333 630.5,67.5C 631.833,65.8333 631.833,64.1667 630.5,62.5C 630.81,60.1897 630.81,57.8564 630.5,55.5C 621.167,55.1667 621.167,54.8333 630.5,54.5C 631.833,53.5 631.833,52.5 630.5,51.5C 621.167,51.1667 621.167,50.8333 630.5,50.5C 631.833,49.5 631.833,48.5 630.5,47.5C 621.167,47.1667 621.167,46.8333 630.5,46.5C 631.833,43.5 631.833,40.5 630.5,37.5C 610.5,37.1667 610.5,36.8333 630.5,36.5C 631.833,35.5 631.833,34.5 630.5,33.5C 610.5,33.1667 610.5,32.8333 630.5,32.5C 631.833,30.8333 631.833,29.1667 630.5,27.5C 628.167,27.5 625.833,27.5 623.5,27.5C 623.5,21.5 623.5,15.5 623.5,9.5 Z"/></g>
<g><path style="opacity:1" fill="#020202" d="M 639.5,9.5 C 663.833,9.5 688.167,9.5 712.5,9.5C 713.833,21.1667 713.833,32.8333 712.5,44.5C 710.167,44.5 707.833,44.5 705.5,44.5C 705.822,38.642 705.489,32.9753 704.5,27.5C 688.167,27.5 671.833,27.5 655.5,27.5C 655.263,28.791 655.596,29.791 656.5,30.5C 656.5,30.8333 656.5,31.1667 656.5,31.5C 655.167,32.5 655.167,33.5 656.5,34.5C 656.5,34.8333 656.5,35.1667 656.5,35.5C 655.167,36.5 655.167,37.5 656.5,38.5C 656.5,38.8333 656.5,39.1667 656.5,39.5C 655.167,40.5 655.167,41.5 656.5,42.5C 656.5,42.8333 656.5,43.1667 656.5,43.5C 655.51,49.31 655.177,55.31 655.5,61.5C 663.833,61.5 672.167,61.5 680.5,61.5C 680.5,55.8333 680.5,50.1667 680.5,44.5C 683.167,44.5 685.833,44.5 688.5,44.5C 688.5,62.1667 688.5,79.8333 688.5,97.5C 685.833,97.5 683.167,97.5 680.5,97.5C 680.167,96.1667 679.833,94.8333 679.5,93.5C 680.686,92.2946 680.686,90.9613 679.5,89.5C 680.833,88.5 680.833,87.5 679.5,86.5C 679.5,86.1667 679.5,85.8333 679.5,85.5C 680.833,84.5 680.833,83.5 679.5,82.5C 679.804,81.8501 680.137,81.1835 680.5,80.5C 679,80.1667 677.5,79.8333 676,79.5C 671.976,80.1157 667.81,80.1157 663.5,79.5C 661.167,79.6667 658.833,79.8333 656.5,80C 655.209,81.2917 655.209,82.4583 656.5,83.5C 656.5,83.8333 656.5,84.1667 656.5,84.5C 655.167,85.5 655.167,86.5 656.5,87.5C 656.5,87.8333 656.5,88.1667 656.5,88.5C 655.167,89.5 655.167,90.5 656.5,91.5C 656.5,91.8333 656.5,92.1667 656.5,92.5C 655.167,93.5 655.167,94.5 656.5,95.5C 656.5,95.8333 656.5,96.1667 656.5,96.5C 655.51,102.31 655.177,108.31 655.5,114.5C 658.167,114.5 660.833,114.5 663.5,114.5C 663.5,120.5 663.5,126.5 663.5,132.5C 655.5,132.5 647.5,132.5 639.5,132.5C 639.383,91.3565 639.383,50.3565 639.5,9.5 Z"/></g>
<g><path style="opacity:1" fill="#606060" d="M 329.5,9.5 C 329.5,15.5 329.5,21.5 329.5,27.5C 326.833,27.5 324.167,27.5 321.5,27.5C 321.5,27.1667 321.5,26.8333 321.5,26.5C 323.833,26.5 326.167,26.5 328.5,26.5C 328.5,25.5 328.5,24.5 328.5,23.5C 326.167,23.5 323.833,23.5 321.5,23.5C 321.5,23.1667 321.5,22.8333 321.5,22.5C 323.833,22.5 326.167,22.5 328.5,22.5C 328.182,17.9677 328.515,13.6344 329.5,9.5 Z"/></g>
<g><path style="opacity:1" fill="#5e5e5e" d="M 525.5,9.5 C 525.5,15.5 525.5,21.5 525.5,27.5C 522.482,27.6646 519.482,27.498 516.5,27C 519.146,26.5026 521.813,26.3359 524.5,26.5C 524.5,25.5 524.5,24.5 524.5,23.5C 513.833,23.1667 513.833,22.8333 524.5,22.5C 524.182,17.9677 524.515,13.6344 525.5,9.5 Z"/></g>
<g><path style="opacity:1" fill="#606060" d="M 623.5,9.5 C 623.5,15.5 623.5,21.5 623.5,27.5C 620.833,27.5 618.167,27.5 615.5,27.5C 615.5,27.1667 615.5,26.8333 615.5,26.5C 617.833,26.5 620.167,26.5 622.5,26.5C 622.5,25.5 622.5,24.5 622.5,23.5C 620.167,23.5 617.833,23.5 615.5,23.5C 615.5,23.1667 615.5,22.8333 615.5,22.5C 617.833,22.5 620.167,22.5 622.5,22.5C 622.182,17.9677 622.515,13.6344 623.5,9.5 Z"/></g>
<g><path style="opacity:1" fill="#cfcfcf" d="M 321.5,23.5 C 323.833,23.5 326.167,23.5 328.5,23.5C 328.5,24.5 328.5,25.5 328.5,26.5C 326.167,26.5 323.833,26.5 321.5,26.5C 320.167,25.5 320.167,24.5 321.5,23.5 Z"/></g>
<g><path style="opacity:1" fill="#cfcfcf" d="M 615.5,23.5 C 617.833,23.5 620.167,23.5 622.5,23.5C 622.5,24.5 622.5,25.5 622.5,26.5C 620.167,26.5 617.833,26.5 615.5,26.5C 614.167,25.5 614.167,24.5 615.5,23.5 Z"/></g>
<g><path style="opacity:1" fill="#f5f5f5" d="M 321.5,27.5 C 324.167,27.5 326.833,27.5 329.5,27.5C 331.833,27.5 334.167,27.5 336.5,27.5C 331.684,28.3261 326.684,28.8261 321.5,29C 326.5,29.3333 331.5,29.6667 336.5,30C 331.167,30.3333 325.833,30.6667 320.5,31C 326.016,31.1733 331.349,31.6733 336.5,32.5C 316.5,32.8333 316.5,33.1667 336.5,33.5C 331.349,34.3267 326.016,34.8267 320.5,35C 326.016,35.1733 331.349,35.6733 336.5,36.5C 316.5,36.8333 316.5,37.1667 336.5,37.5C 331.349,38.3267 326.016,38.8267 320.5,39C 325.833,39.3333 331.167,39.6667 336.5,40C 325.833,40.6667 325.833,41.3333 336.5,42C 315.167,42.6667 315.167,43.3333 336.5,44C 333.833,44.3333 331.167,44.6667 328.5,45C 331.365,45.1829 334.031,45.6829 336.5,46.5C 327.167,46.8333 327.167,47.1667 336.5,47.5C 334.031,48.3171 331.365,48.8171 328.5,49C 331.365,49.1829 334.031,49.6829 336.5,50.5C 327.167,50.8333 327.167,51.1667 336.5,51.5C 334.031,52.3171 331.365,52.8171 328.5,53C 331.365,53.1829 334.031,53.6829 336.5,54.5C 327.167,54.8333 327.167,55.1667 336.5,55.5C 333.972,56.1657 331.306,56.8324 328.5,57.5C 329.833,58.8333 329.833,60.1667 328.5,61.5C 331.086,62.48 333.753,62.8134 336.5,62.5C 334.369,63.3138 332.036,63.8138 329.5,64C 331.833,64.3333 334.167,64.6667 336.5,65C 333.833,65.3333 331.167,65.6667 328.5,66C 331.365,66.1829 334.031,66.6829 336.5,67.5C 327.167,67.8333 327.167,68.1667 336.5,68.5C 334.031,69.3171 331.365,69.8171 328.5,70C 331.365,70.1829 334.031,70.6829 336.5,71.5C 327.167,71.8333 327.167,72.1667 336.5,72.5C 334.031,73.3171 331.365,73.8171 328.5,74C 339.167,74.6667 339.167,75.3333 328.5,76C 339.167,76.6667 339.167,77.3333 328.5,78C 339.167,78.6667 339.167,79.3333 328.5,80C 331.365,80.1829 334.031,80.6829 336.5,81.5C 327.167,81.8333 327.167,82.1667 336.5,82.5C 334.031,83.3171 331.365,83.8171 328.5,84C 331.365,84.1829 334.031,84.6829 336.5,85.5C 327.167,85.8333 327.167,86.1667 336.5,86.5C 334.031,87.3171 331.365,87.8171 328.5,88C 331.365,88.1829 334.031,88.6829 336.5,89.5C 327.167,89.8333 327.167,90.1667 336.5,90.5C 333.972,91.1657 331.306,91.8324 328.5,92.5C 329.833,93.8333 329.833,95.1667 328.5,96.5C 331.086,97.48 333.753,97.8134 336.5,97.5C 334.369,98.3138 332.036,98.8138 329.5,99C 331.833,99.3333 334.167,99.6667 336.5,100C 333.833,100.333 331.167,100.667 328.5,101C 331.365,101.183 334.031,101.683 336.5,102.5C 327.167,102.833 327.167,103.167 336.5,103.5C 334.031,104.317 331.365,104.817 328.5,105C 331.365,105.183 334.031,105.683 336.5,106.5C 327.167,106.833 327.167,107.167 336.5,107.5C 334.031,108.317 331.365,108.817 328.5,109C 331.365,109.183 334.031,109.683 336.5,110.5C 327.167,110.833 327.167,111.167 336.5,111.5C 334.031,112.317 331.365,112.817 328.5,113C 331.365,113.183 334.031,113.683 336.5,114.5C 334.167,114.5 331.833,114.5 329.5,114.5C 328.515,118.634 328.182,122.968 328.5,127.5C 326.167,127.5 323.833,127.5 321.5,127.5C 320.515,123.366 320.182,119.032 320.5,114.5C 317.833,114.5 315.167,114.5 312.5,114.5C 312.5,85.5 312.5,56.5 312.5,27.5C 315.5,27.5 318.5,27.5 321.5,27.5 Z"/></g>
<g><path style="opacity:1" fill="#d2d2d2" d="M 704.5,27.5 C 701.359,28.3213 698.025,28.8213 694.5,29C 697.833,29.3333 701.167,29.6667 704.5,30C 688.503,30.4999 672.503,30.6666 656.5,30.5C 655.596,29.791 655.263,28.791 655.5,27.5C 671.833,27.5 688.167,27.5 704.5,27.5 Z"/></g>
<g><path style="opacity:1" fill="#6e6e6e" d="M 361.5,28.5 C 366.511,28.3341 371.511,28.5007 376.5,29C 371.649,29.1745 366.982,29.6745 362.5,30.5C 361.662,30.1583 361.328,29.4916 361.5,28.5 Z"/></g>
<g><path style="opacity:1" fill="#6c6c6c" d="M 557.5,28.5 C 570.171,28.3334 582.838,28.5001 595.5,29C 582.993,29.1692 570.66,29.6692 558.5,30.5C 557.662,30.1583 557.328,29.4916 557.5,28.5 Z"/></g>
<g><path style="opacity:1" fill="#f7f7f7" d="M 361.5,28.5 C 372.326,27.341 383.326,27.1743 394.5,28C 388.833,28.3333 383.167,28.6667 377.5,29C 382.823,29.4994 388.156,29.666 393.5,29.5C 383.347,30.4942 373.014,30.8276 362.5,30.5C 366.982,29.6745 371.649,29.1745 376.5,29C 371.511,28.5007 366.511,28.3341 361.5,28.5 Z"/></g>
<g><path style="opacity:1" fill="#f9f9f9" d="M 557.5,28.5 C 573.661,27.3385 589.995,27.1718 606.5,28C 593.167,28.6667 593.167,29.3333 606.5,30C 590.503,30.4999 574.503,30.6666 558.5,30.5C 570.66,29.6692 582.993,29.1692 595.5,29C 582.838,28.5001 570.171,28.3334 557.5,28.5 Z"/></g>
<g><path style="opacity:1" fill="#f5f5f5" d="M 615.5,27.5 C 618.167,27.5 620.833,27.5 623.5,27.5C 625.833,27.5 628.167,27.5 630.5,27.5C 625.684,28.3261 620.684,28.8261 615.5,29C 635.489,29.8322 635.489,30.3322 615.5,30.5C 614.167,29.5 614.167,28.5 615.5,27.5 Z"/></g>
<g><path style="opacity:1" fill="#656565" d="M 206.5,30.5 C 206.5,31.5 206.5,32.5 206.5,33.5C 204.621,33.6068 204.288,33.1068 205.5,32C 200.167,31.6667 194.833,31.3333 189.5,31C 195.157,30.5006 200.824,30.3339 206.5,30.5 Z"/></g>
<g><path style="opacity:1" fill="#6a6a6a" d="M 336.5,27.5 C 337.833,29.1667 337.833,30.8333 336.5,32.5C 331.349,31.6733 326.016,31.1733 320.5,31C 325.833,30.6667 331.167,30.3333 336.5,30C 331.5,29.6667 326.5,29.3333 321.5,29C 326.684,28.8261 331.684,28.3261 336.5,27.5 Z"/></g>
<g><path style="opacity:1" fill="#6d6d6d" d="M 393.5,29.5 C 394.833,30.5 394.833,31.5 393.5,32.5C 383.347,31.5058 373.014,31.1724 362.5,31.5C 362.5,31.1667 362.5,30.8333 362.5,30.5C 373.014,30.8276 383.347,30.4942 393.5,29.5 Z"/></g>
<g><path style="opacity:1" fill="#6a6a6a" d="M 532.5,27.5 C 533.833,29.1667 533.833,30.8333 532.5,32.5C 527.349,31.6733 522.016,31.1733 516.5,31C 521.833,30.6667 527.167,30.3333 532.5,30C 527.5,29.6667 522.5,29.3333 517.5,29C 522.684,28.8261 527.684,28.3261 532.5,27.5 Z"/></g>
<g><path style="opacity:1" fill="#6b6b6b" d="M 630.5,27.5 C 631.833,29.1667 631.833,30.8333 630.5,32.5C 625.695,31.5128 620.695,31.1795 615.5,31.5C 615.5,31.1667 615.5,30.8333 615.5,30.5C 635.489,30.3322 635.489,29.8322 615.5,29C 620.684,28.8261 625.684,28.3261 630.5,27.5 Z"/></g>
<g><path style="opacity:1" fill="#d2d2d2" d="M 656.5,31.5 C 672.503,31.3334 688.503,31.5001 704.5,32C 691.167,32.6667 691.167,33.3333 704.5,34C 688.503,34.4999 672.503,34.6666 656.5,34.5C 655.167,33.5 655.167,32.5 656.5,31.5 Z"/></g>
<g><path style="opacity:1" fill="#6e6e6e" d="M 361.5,32.5 C 366.511,32.3341 371.511,32.5007 376.5,33C 371.649,33.1745 366.982,33.6745 362.5,34.5C 361.662,34.1583 361.328,33.4916 361.5,32.5 Z"/></g>
<g><path style="opacity:1" fill="#6c6c6c" d="M 557.5,32.5 C 570.171,32.3334 582.838,32.5001 595.5,33C 582.993,33.1692 570.66,33.6692 558.5,34.5C 557.662,34.1583 557.328,33.4916 557.5,32.5 Z"/></g>
<g><path style="opacity:1" fill="#f8f8f8" d="M 361.5,32.5 C 361.5,31.8333 361.833,31.5 362.5,31.5C 373.014,31.1724 383.347,31.5058 393.5,32.5C 372.167,32.8333 372.167,33.1667 393.5,33.5C 383.347,34.4942 373.014,34.8276 362.5,34.5C 366.982,33.6745 371.649,33.1745 376.5,33C 371.511,32.5007 366.511,32.3341 361.5,32.5 Z"/></g>
<g><path style="opacity:1" fill="#f9f9f9" d="M 557.5,32.5 C 573.661,31.3385 589.995,31.1718 606.5,32C 593.167,32.6667 593.167,33.3333 606.5,34C 590.503,34.4999 574.503,34.6666 558.5,34.5C 570.66,33.6692 582.993,33.1692 595.5,33C 582.838,32.5001 570.171,32.3334 557.5,32.5 Z"/></g>
<g><path style="opacity:1" fill="#f5f5f5" d="M 615.5,31.5 C 620.695,31.1795 625.695,31.5128 630.5,32.5C 610.5,32.8333 610.5,33.1667 630.5,33.5C 625.695,34.4872 620.695,34.8205 615.5,34.5C 614.167,33.5 614.167,32.5 615.5,31.5 Z"/></g>
<g><path style="opacity:1" fill="#5d5d5d" d="M 704.5,27.5 C 705.489,32.9753 705.822,38.642 705.5,44.5C 689.244,43.5155 672.911,43.1822 656.5,43.5C 656.5,43.1667 656.5,42.8333 656.5,42.5C 672.503,42.6666 688.503,42.4999 704.5,42C 691.167,41.3333 691.167,40.6667 704.5,40C 688.503,39.5001 672.503,39.3334 656.5,39.5C 656.5,39.1667 656.5,38.8333 656.5,38.5C 672.503,38.6666 688.503,38.4999 704.5,38C 691.167,37.3333 691.167,36.6667 704.5,36C 688.503,35.5001 672.503,35.3334 656.5,35.5C 656.5,35.1667 656.5,34.8333 656.5,34.5C 672.503,34.6666 688.503,34.4999 704.5,34C 691.167,33.3333 691.167,32.6667 704.5,32C 688.503,31.5001 672.503,31.3334 656.5,31.5C 656.5,31.1667 656.5,30.8333 656.5,30.5C 672.503,30.6666 688.503,30.4999 704.5,30C 701.167,29.6667 697.833,29.3333 694.5,29C 698.025,28.8213 701.359,28.3213 704.5,27.5 Z"/></g>
<g><path style="opacity:1" fill="#656565" d="M 206.5,34.5 C 206.5,35.5 206.5,36.5 206.5,37.5C 204.621,37.6068 204.288,37.1068 205.5,36C 200.167,35.6667 194.833,35.3333 189.5,35C 195.157,34.5006 200.824,34.3339 206.5,34.5 Z"/></g>
<g><path style="opacity:1" fill="#696969" d="M 336.5,33.5 C 337.833,34.5 337.833,35.5 336.5,36.5C 331.349,35.6733 326.016,35.1733 320.5,35C 326.016,34.8267 331.349,34.3267 336.5,33.5 Z"/></g>
<g><path style="opacity:1" fill="#6d6d6d" d="M 393.5,33.5 C 394.833,34.5 394.833,35.5 393.5,36.5C 383.347,35.5058 373.014,35.1724 362.5,35.5C 362.5,35.1667 362.5,34.8333 362.5,34.5C 373.014,34.8276 383.347,34.4942 393.5,33.5 Z"/></g>
<g><path style="opacity:1" fill="#696969" d="M 532.5,33.5 C 533.833,34.5 533.833,35.5 532.5,36.5C 527.349,35.6733 522.016,35.1733 516.5,35C 522.016,34.8267 527.349,34.3267 532.5,33.5 Z"/></g>
<g><path style="opacity:1" fill="#686868" d="M 630.5,33.5 C 631.833,34.5 631.833,35.5 630.5,36.5C 625.695,35.5128 620.695,35.1795 615.5,35.5C 615.5,35.1667 615.5,34.8333 615.5,34.5C 620.695,34.8205 625.695,34.4872 630.5,33.5 Z"/></g>
<g><path style="opacity:1" fill="#d2d2d2" d="M 656.5,35.5 C 672.503,35.3334 688.503,35.5001 704.5,36C 691.167,36.6667 691.167,37.3333 704.5,38C 688.503,38.4999 672.503,38.6666 656.5,38.5C 655.167,37.5 655.167,36.5 656.5,35.5 Z"/></g>
<g><path style="opacity:1" fill="#6e6e6e" d="M 361.5,36.5 C 366.511,36.3341 371.511,36.5007 376.5,37C 371.649,37.1745 366.982,37.6745 362.5,38.5C 361.662,38.1583 361.328,37.4916 361.5,36.5 Z"/></g>
<g><path style="opacity:1" fill="#6c6c6c" d="M 557.5,36.5 C 570.171,36.3334 582.838,36.5001 595.5,37C 582.993,37.1692 570.66,37.6692 558.5,38.5C 557.662,38.1583 557.328,37.4916 557.5,36.5 Z"/></g>
<g><path style="opacity:1" fill="#f9f9f9" d="M 557.5,36.5 C 573.661,35.3385 589.995,35.1718 606.5,36C 593.167,36.6667 593.167,37.3333 606.5,38C 590.503,38.4999 574.503,38.6666 558.5,38.5C 570.66,37.6692 582.993,37.1692 595.5,37C 582.838,36.5001 570.171,36.3334 557.5,36.5 Z"/></g>
<g><path style="opacity:1" fill="#f5f5f5" d="M 615.5,35.5 C 620.695,35.1795 625.695,35.5128 630.5,36.5C 610.5,36.8333 610.5,37.1667 630.5,37.5C 625.695,38.4872 620.695,38.8205 615.5,38.5C 614.167,37.5 614.167,36.5 615.5,35.5 Z"/></g>
<g><path style="opacity:1" fill="#d2d2d2" d="M 656.5,39.5 C 672.503,39.3334 688.503,39.5001 704.5,40C 691.167,40.6667 691.167,41.3333 704.5,42C 688.503,42.4999 672.503,42.6666 656.5,42.5C 655.167,41.5 655.167,40.5 656.5,39.5 Z"/></g>
<g><path style="opacity:1" fill="#6e6e6e" d="M 361.5,40.5 C 366.511,40.3341 371.511,40.5007 376.5,41C 371.649,41.1745 366.982,41.6745 362.5,42.5C 361.662,42.1583 361.328,41.4916 361.5,40.5 Z"/></g>
<g><path style="opacity:1" fill="#6c6c6c" d="M 557.5,40.5 C 570.171,40.3334 582.838,40.5001 595.5,41C 582.993,41.1692 570.66,41.6692 558.5,42.5C 557.662,42.1583 557.328,41.4916 557.5,40.5 Z"/></g>
<g><path style="opacity:1" fill="#f6f6f6" d="M 361.5,36.5 C 361.5,35.8333 361.833,35.5 362.5,35.5C 373.014,35.1724 383.347,35.5058 393.5,36.5C 388.156,36.334 382.823,36.5006 377.5,37C 383.157,37.4994 388.824,37.6661 394.5,37.5C 394.5,38.5 394.5,39.5 394.5,40.5C 371.843,40.6676 371.843,41.1676 394.5,42C 383.839,42.4998 373.172,42.6665 362.5,42.5C 366.982,41.6745 371.649,41.1745 376.5,41C 371.511,40.5007 366.511,40.3341 361.5,40.5C 371.992,39.6696 382.659,39.1696 393.5,39C 383.172,38.5002 372.839,38.3335 362.5,38.5C 366.982,37.6745 371.649,37.1745 376.5,37C 371.511,36.5007 366.511,36.3341 361.5,36.5 Z"/></g>
<g><path style="opacity:1" fill="#f9f9f9" d="M 557.5,40.5 C 573.661,39.3385 589.995,39.1718 606.5,40C 593.167,40.6667 593.167,41.3333 606.5,42C 590.503,42.4999 574.503,42.6666 558.5,42.5C 570.66,41.6692 582.993,41.1692 595.5,41C 582.838,40.5001 570.171,40.3334 557.5,40.5 Z"/></g>
<g><path style="opacity:1" fill="#eaeaea" d="M 615.5,39.5 C 620.511,39.3341 625.511,39.5007 630.5,40C 619.833,40.6667 619.833,41.3333 630.5,42C 625.511,42.4993 620.511,42.6659 615.5,42.5C 614.167,41.5 614.167,40.5 615.5,39.5 Z"/></g>
<g><path style="opacity:1" fill="#494949" d="M 336.5,37.5 C 337.833,40.5 337.833,43.5 336.5,46.5C 334.031,45.6829 331.365,45.1829 328.5,45C 331.167,44.6667 333.833,44.3333 336.5,44C 315.167,43.3333 315.167,42.6667 336.5,42C 325.833,41.3333 325.833,40.6667 336.5,40C 331.167,39.6667 325.833,39.3333 320.5,39C 326.016,38.8267 331.349,38.3267 336.5,37.5 Z"/></g>
<g><path style="opacity:1" fill="#494949" d="M 532.5,37.5 C 533.833,40.5 533.833,43.5 532.5,46.5C 530.031,45.6829 527.365,45.1829 524.5,45C 527.167,44.6667 529.833,44.3333 532.5,44C 511.167,43.3333 511.167,42.6667 532.5,42C 521.833,41.3333 521.833,40.6667 532.5,40C 527.167,39.6667 521.833,39.3333 516.5,39C 522.016,38.8267 527.349,38.3267 532.5,37.5 Z"/></g>
<g><path style="opacity:1" fill="#494949" d="M 630.5,37.5 C 631.833,40.5 631.833,43.5 630.5,46.5C 628.031,45.6829 625.365,45.1829 622.5,45C 625.167,44.6667 627.833,44.3333 630.5,44C 625.511,43.5007 620.511,43.3341 615.5,43.5C 615.5,43.1667 615.5,42.8333 615.5,42.5C 620.511,42.6659 625.511,42.4993 630.5,42C 619.833,41.3333 619.833,40.6667 630.5,40C 625.511,39.5007 620.511,39.3341 615.5,39.5C 615.5,39.1667 615.5,38.8333 615.5,38.5C 620.695,38.8205 625.695,38.4872 630.5,37.5 Z"/></g>
<g><path style="opacity:1" fill="#f2f2f2" d="M 393.5,43.5 C 391.031,44.3171 388.365,44.8171 385.5,45C 388.817,45.4983 392.15,45.665 395.5,45.5C 397.857,45.3367 400.19,45.5034 402.5,46C 399.833,46.6667 399.833,47.3333 402.5,48C 379.833,48.6667 379.833,49.3333 402.5,50C 399.833,50.6667 399.833,51.3333 402.5,52C 379.833,52.6667 379.833,53.3333 402.5,54C 401.833,54.3333 401.167,54.6667 400.5,55C 401.416,55.2784 402.082,55.7784 402.5,56.5C 397.131,57.0074 391.798,57.8407 386.5,59C 389.146,59.4974 391.813,59.6641 394.5,59.5C 394.5,60.5 394.5,61.5 394.5,62.5C 397.167,62.5 399.833,62.5 402.5,62.5C 402.082,63.2216 401.416,63.7216 400.5,64C 401.167,64.3333 401.833,64.6667 402.5,65C 390.5,65.6667 390.5,66.3333 402.5,67C 399.833,67.6667 399.833,68.3333 402.5,69C 390.5,69.6667 390.5,70.3333 402.5,71C 399.833,71.6667 399.833,72.3333 402.5,73C 391.833,73.6667 391.833,74.3333 402.5,75C 391.833,75.6667 391.833,76.3333 402.5,77C 391.833,77.6667 391.833,78.3333 402.5,79C 390.5,79.6667 390.5,80.3333 402.5,81C 399.833,81.6667 399.833,82.3333 402.5,83C 390.5,83.6667 390.5,84.3333 402.5,85C 399.833,85.6667 399.833,86.3333 402.5,87C 390.5,87.6667 390.5,88.3333 402.5,89C 399.833,89.6667 399.833,90.3333 402.5,91C 390.5,91.6667 390.5,92.3333 402.5,93C 399.833,93.6667 399.833,94.3333 402.5,95C 400.19,95.4966 397.857,95.6633 395.5,95.5C 393.544,101.412 392.877,107.745 393.5,114.5C 382.833,114.5 372.167,114.5 361.5,114.5C 361.5,90.8333 361.5,67.1667 361.5,43.5C 372.167,43.5 382.833,43.5 393.5,43.5 Z"/></g>
<g><path style="opacity:1" fill="#0b0b0b" d="M 131.5,132.5 C 132.833,130.5 132.833,128.5 131.5,126.5C 132.338,126.158 132.672,125.492 132.5,124.5C 133.833,123.5 133.833,122.5 132.5,121.5C 132.5,121.167 132.5,120.833 132.5,120.5C 133.833,119.5 133.833,118.5 132.5,117.5C 132.5,117.167 132.5,116.833 132.5,116.5C 133.043,116.44 133.376,116.107 133.5,115.5C 130.691,114.2 128.024,114.2 125.5,115.5C 122.482,115.665 119.482,115.498 116.5,115C 127.167,114.333 127.167,113.667 116.5,113C 127.167,112.333 127.167,111.667 116.5,111C 119.146,110.503 121.813,110.336 124.5,110.5C 125.833,106.167 125.833,101.833 124.5,97.5C 125.479,85.5803 125.812,73.5803 125.5,61.5C 127.833,61.5 130.167,61.5 132.5,61.5C 132.5,55.8333 132.5,50.1667 132.5,44.5C 149.167,44.5 165.833,44.5 182.5,44.5C 182.5,50.1667 182.5,55.8333 182.5,61.5C 185.167,61.5 187.833,61.5 190.5,61.5C 190.5,79.1667 190.5,96.8333 190.5,114.5C 187.833,114.5 185.167,114.5 182.5,114.5C 182.5,120.5 182.5,126.5 182.5,132.5C 165.5,132.5 148.5,132.5 131.5,132.5 Z"/></g>
<g><path style="opacity:1" fill="#6a6a6a" d="M 206.5,44.5 C 206.5,45.5 206.5,46.5 206.5,47.5C 204.621,47.6068 204.288,47.1068 205.5,46C 202.833,45.6667 200.167,45.3333 197.5,45C 200.482,44.502 203.482,44.3354 206.5,44.5 Z"/></g>
<g><path style="opacity:1" fill="#6d6d6d" d="M 393.5,43.5 C 394.5,43.8333 395.167,44.5 395.5,45.5C 392.15,45.665 388.817,45.4983 385.5,45C 388.365,44.8171 391.031,44.3171 393.5,43.5 Z"/></g>
<g><path style="opacity:1" fill="#5b5b5b" d="M 26.5,27.5 C 27.8195,39.0686 27.8195,50.7353 26.5,62.5C 23.8333,62.5 21.1667,62.5 18.5,62.5C 18.5,60.5 18.5,58.5 18.5,56.5C 29.1461,56.3293 29.1461,55.8293 18.5,55C 29.1667,54.3333 29.1667,53.6667 18.5,53C 29.1667,52.3333 29.1667,51.6667 18.5,51C 29.1667,50.3333 29.1667,49.6667 18.5,49C 29.1667,48.3333 29.1667,47.6667 18.5,47C 29.1667,46.3333 29.1667,45.6667 18.5,45C 21.1667,44.6667 23.8333,44.3333 26.5,44C 3.83333,43.3333 3.83333,42.6667 26.5,42C 13.1667,41.3333 13.1667,40.6667 26.5,40C 3.83333,39.3333 3.83333,38.6667 26.5,38C 13.1667,37.3333 13.1667,36.6667 26.5,36C 3.83333,35.3333 3.83333,34.6667 26.5,34C 13.1667,33.3333 13.1667,32.6667 26.5,32C 3.83333,31.3333 3.83333,30.6667 26.5,30C 23.1667,29.6667 19.8333,29.3333 16.5,29C 20.0252,28.8213 23.3586,28.3213 26.5,27.5 Z"/></g>
<g><path style="opacity:1" fill="#6a6a6a" d="M 206.5,48.5 C 206.5,49.5 206.5,50.5 206.5,51.5C 204.621,51.6068 204.288,51.1068 205.5,50C 202.833,49.6667 200.167,49.3333 197.5,49C 200.482,48.502 203.482,48.3354 206.5,48.5 Z"/></g>
<g><path style="opacity:1" fill="#9d9d9d" d="M 238.5,54.5 C 235.941,54.8016 233.607,54.4682 231.5,53.5C 230.308,48.6256 230.308,45.6256 231.5,44.5C 234.247,44.1866 236.914,44.52 239.5,45.5C 239.311,48.6468 238.978,51.6468 238.5,54.5 Z"/></g>
<g><path style="opacity:1" fill="#9d9d9d" d="M 287.5,54.5 C 284.941,54.8016 282.607,54.4682 280.5,53.5C 279.308,48.6256 279.308,45.6256 280.5,44.5C 283.247,44.1866 285.914,44.52 288.5,45.5C 288.311,48.6468 287.978,51.6468 287.5,54.5 Z"/></g>
<g><path style="opacity:1" fill="#646464" d="M 336.5,47.5 C 337.833,48.5 337.833,49.5 336.5,50.5C 334.031,49.6829 331.365,49.1829 328.5,49C 331.365,48.8171 334.031,48.3171 336.5,47.5 Z"/></g>
<g><path style="opacity:1" fill="#646464" d="M 532.5,47.5 C 533.833,48.5 533.833,49.5 532.5,50.5C 530.031,49.6829 527.365,49.1829 524.5,49C 527.365,48.8171 530.031,48.3171 532.5,47.5 Z"/></g>
<g><path style="opacity:1" fill="#646464" d="M 630.5,47.5 C 631.833,48.5 631.833,49.5 630.5,50.5C 628.031,49.6829 625.365,49.1829 622.5,49C 625.365,48.8171 628.031,48.3171 630.5,47.5 Z"/></g>
<g><path style="opacity:1" fill="#6a6a6a" d="M 206.5,52.5 C 206.5,53.5 206.5,54.5 206.5,55.5C 204.621,55.6068 204.288,55.1068 205.5,54C 202.833,53.6667 200.167,53.3333 197.5,53C 200.482,52.502 203.482,52.3354 206.5,52.5 Z"/></g>
<g><path style="opacity:1" fill="#646464" d="M 336.5,51.5 C 337.833,52.5 337.833,53.5 336.5,54.5C 334.031,53.6829 331.365,53.1829 328.5,53C 331.365,52.8171 334.031,52.3171 336.5,51.5 Z"/></g>
<g><path style="opacity:1" fill="#646464" d="M 532.5,51.5 C 533.833,52.5 533.833,53.5 532.5,54.5C 530.031,53.6829 527.365,53.1829 524.5,53C 527.365,52.8171 530.031,52.3171 532.5,51.5 Z"/></g>
<g><path style="opacity:1" fill="#646464" d="M 630.5,51.5 C 631.833,52.5 631.833,53.5 630.5,54.5C 628.031,53.6829 625.365,53.1829 622.5,53C 625.365,52.8171 628.031,52.3171 630.5,51.5 Z"/></g>
<g><path style="opacity:1" fill="#6b6b6b" d="M 206.5,56.5 C 206.5,58.5 206.5,60.5 206.5,62.5C 203.428,62.8174 200.428,62.4841 197.5,61.5C 198.833,60.1667 198.833,58.8333 197.5,57.5C 200.428,56.5159 203.428,56.1826 206.5,56.5 Z"/></g>
<g><path style="opacity:1" fill="#6b6b6b" d="M 336.5,55.5 C 336.81,57.8564 336.81,60.1897 336.5,62.5C 333.753,62.8134 331.086,62.48 328.5,61.5C 329.833,60.1667 329.833,58.8333 328.5,57.5C 331.306,56.8324 333.972,56.1657 336.5,55.5 Z"/></g>
<g><path style="opacity:1" fill="#686868" d="M 402.5,56.5 C 402.5,58.5 402.5,60.5 402.5,62.5C 399.833,62.5 397.167,62.5 394.5,62.5C 394.5,61.5 394.5,60.5 394.5,59.5C 391.813,59.6641 389.146,59.4974 386.5,59C 391.798,57.8407 397.131,57.0074 402.5,56.5 Z"/></g>
<g><path style="opacity:1" fill="#6b6b6b" d="M 532.5,55.5 C 532.81,57.8564 532.81,60.1897 532.5,62.5C 529.753,62.8134 527.086,62.48 524.5,61.5C 525.833,60.1667 525.833,58.8333 524.5,57.5C 527.306,56.8324 529.972,56.1657 532.5,55.5 Z"/></g>
<g><path style="opacity:1" fill="#6b6b6b" d="M 630.5,55.5 C 630.81,57.8564 630.81,60.1897 630.5,62.5C 627.753,62.8134 625.086,62.48 622.5,61.5C 623.833,60.1667 623.833,58.8333 622.5,57.5C 625.306,56.8324 627.972,56.1657 630.5,55.5 Z"/></g>
<g><path style="opacity:1" fill="#838383" d="M 231.5,53.5 C 233.607,54.4682 235.941,54.8016 238.5,54.5C 238.779,57.0822 238.779,59.5822 238.5,62C 241.955,62.1196 244.622,62.6196 246.5,63.5C 241.305,63.8205 236.305,63.4872 231.5,62.5C 230.319,59.3623 230.319,56.3623 231.5,53.5 Z"/></g>
<g><path style="opacity:1" fill="#6d6d6d" d="M 280.5,53.5 C 282.607,54.4682 284.941,54.8016 287.5,54.5C 288.022,57.3135 288.022,59.9802 287.5,62.5C 284.833,62.5 282.167,62.5 279.5,62.5C 279.19,59.2869 279.523,56.2869 280.5,53.5 Z"/></g>
<g><path style="opacity:1" fill="#080808" d="M 435.5,61.5 C 462.5,61.5 489.5,61.5 516.5,61.5C 516.5,67.5 516.5,73.5 516.5,79.5C 492.512,80.3796 468.512,80.7129 444.5,80.5C 441.695,79.6805 438.695,79.1805 435.5,79C 434.944,78.6174 434.611,78.1174 434.5,77.5C 435.488,72.3595 435.821,67.0262 435.5,61.5 Z"/></g>
<g><path style="opacity:1" fill="#6e6e6e" d="M 231.5,62.5 C 236.305,63.4872 241.305,63.8205 246.5,63.5C 246.5,63.8333 246.5,64.1667 246.5,64.5C 241.305,64.1795 236.305,64.5128 231.5,65.5C 230.167,64.5 230.167,63.5 231.5,62.5 Z"/></g>
<g><path style="opacity:1" fill="#e2e2e2" d="M 149.5,62.5 C 154.844,62.334 160.177,62.5006 165.5,63C 164.833,63.3333 164.167,63.6667 163.5,64C 164.416,64.2784 165.082,64.7784 165.5,65.5C 160.156,65.666 154.823,65.4994 149.5,65C 151.167,64.6667 152.833,64.3333 154.5,64C 152.618,63.8019 150.952,63.3019 149.5,62.5 Z"/></g>
<g><path style="opacity:1" fill="#6a6a6a" d="M 206.5,65.5 C 206.5,66.5 206.5,67.5 206.5,68.5C 204.621,68.6068 204.288,68.1068 205.5,67C 202.833,66.6667 200.167,66.3333 197.5,66C 200.482,65.502 203.482,65.3354 206.5,65.5 Z"/></g>
<g><path style="opacity:1" fill="#b0b0b0" d="M 246.5,64.5 C 247.833,65.5 247.833,66.5 246.5,67.5C 241.305,67.8205 236.305,67.4872 231.5,66.5C 231.5,66.1667 231.5,65.8333 231.5,65.5C 236.305,64.5128 241.305,64.1795 246.5,64.5 Z"/></g>
<g><path style="opacity:1" fill="#626262" d="M 287.5,62.5 C 288.833,64.1667 288.833,65.8333 287.5,67.5C 285.031,66.6829 282.365,66.1829 279.5,66C 282.167,65.6667 284.833,65.3333 287.5,65C 285.167,64.6667 282.833,64.3333 280.5,64C 283.036,63.8138 285.369,63.3138 287.5,62.5 Z"/></g>
<g><path style="opacity:1" fill="#626262" d="M 336.5,62.5 C 337.833,64.1667 337.833,65.8333 336.5,67.5C 334.031,66.6829 331.365,66.1829 328.5,66C 331.167,65.6667 333.833,65.3333 336.5,65C 334.167,64.6667 331.833,64.3333 329.5,64C 332.036,63.8138 334.369,63.3138 336.5,62.5 Z"/></g>
<g><path style="opacity:1" fill="#626262" d="M 532.5,62.5 C 533.833,64.1667 533.833,65.8333 532.5,67.5C 530.031,66.6829 527.365,66.1829 524.5,66C 527.167,65.6667 529.833,65.3333 532.5,65C 530.167,64.6667 527.833,64.3333 525.5,64C 528.036,63.8138 530.369,63.3138 532.5,62.5 Z"/></g>
<g><path style="opacity:1" fill="#626262" d="M 630.5,62.5 C 631.833,64.1667 631.833,65.8333 630.5,67.5C 628.031,66.6829 625.365,66.1829 622.5,66C 625.167,65.6667 627.833,65.3333 630.5,65C 628.167,64.6667 625.833,64.3333 623.5,64C 626.036,63.8138 628.369,63.3138 630.5,62.5 Z"/></g>
<g><path style="opacity:1" fill="#6e6e6e" d="M 231.5,66.5 C 236.305,67.4872 241.305,67.8205 246.5,67.5C 246.5,67.8333 246.5,68.1667 246.5,68.5C 241.305,68.1795 236.305,68.5128 231.5,69.5C 230.167,68.5 230.167,67.5 231.5,66.5 Z"/></g>
<g><path style="opacity:1" fill="#5b5b5b" d="M 26.5,62.5 C 27.8333,66.8333 27.8333,71.1667 26.5,75.5C 24.0314,74.6829 21.3647,74.1829 18.5,74C 29.1667,73.3333 29.1667,72.6667 18.5,72C 29.1667,71.3333 29.1667,70.6667 18.5,70C 29.1667,69.3333 29.1667,68.6667 18.5,68C 29.1667,67.3333 29.1667,66.6667 18.5,66C 29.1667,65.3333 29.1667,64.6667 18.5,64C 21.3647,63.8171 24.0314,63.3171 26.5,62.5 Z"/></g>
<g><path style="opacity:1" fill="#e2e2e2" d="M 165.5,66.5 C 165.082,67.2216 164.416,67.7216 163.5,68C 164.416,68.2784 165.082,68.7784 165.5,69.5C 160.156,69.666 154.823,69.4994 149.5,69C 156.167,68.3333 156.167,67.6667 149.5,67C 154.823,66.5006 160.156,66.334 165.5,66.5 Z"/></g>
<g><path style="opacity:1" fill="#6a6a6a" d="M 206.5,69.5 C 206.5,70.5 206.5,71.5 206.5,72.5C 204.621,72.6068 204.288,72.1068 205.5,71C 202.833,70.6667 200.167,70.3333 197.5,70C 200.482,69.502 203.482,69.3354 206.5,69.5 Z"/></g>
<g><path style="opacity:1" fill="#b0b0b0" d="M 246.5,68.5 C 247.833,69.5 247.833,70.5 246.5,71.5C 241.305,71.8205 236.305,71.4872 231.5,70.5C 231.5,70.1667 231.5,69.8333 231.5,69.5C 236.305,68.5128 241.305,68.1795 246.5,68.5 Z"/></g>
<g><path style="opacity:1" fill="#646464" d="M 287.5,68.5 C 288.833,69.5 288.833,70.5 287.5,71.5C 285.031,70.6829 282.365,70.1829 279.5,70C 282.365,69.8171 285.031,69.3171 287.5,68.5 Z"/></g>
<g><path style="opacity:1" fill="#646464" d="M 336.5,68.5 C 337.833,69.5 337.833,70.5 336.5,71.5C 334.031,70.6829 331.365,70.1829 328.5,70C 331.365,69.8171 334.031,69.3171 336.5,68.5 Z"/></g>
<g><path style="opacity:1" fill="#646464" d="M 532.5,68.5 C 533.833,69.5 533.833,70.5 532.5,71.5C 530.031,70.6829 527.365,70.1829 524.5,70C 527.365,69.8171 530.031,69.3171 532.5,68.5 Z"/></g>
<g><path style="opacity:1" fill="#646464" d="M 630.5,68.5 C 631.833,69.5 631.833,70.5 630.5,71.5C 628.031,70.6829 625.365,70.1829 622.5,70C 625.365,69.8171 628.031,69.3171 630.5,68.5 Z"/></g>
<g><path style="opacity:1" fill="#979797" d="M 231.5,70.5 C 236.305,71.4872 241.305,71.8205 246.5,71.5C 246.5,71.8333 246.5,72.1667 246.5,72.5C 241.695,73.4872 236.695,73.8205 231.5,73.5C 230.167,72.5 230.167,71.5 231.5,70.5 Z"/></g>
<g><path style="opacity:1" fill="#e2e2e2" d="M 165.5,70.5 C 165.082,71.2216 164.416,71.7216 163.5,72C 164.416,72.2784 165.082,72.7784 165.5,73.5C 160.156,73.666 154.823,73.4994 149.5,73C 156.167,72.3333 156.167,71.6667 149.5,71C 154.823,70.5006 160.156,70.334 165.5,70.5 Z"/></g>
<g><path style="opacity:1" fill="#4f4f4f" d="M 149.5,62.5 C 150.952,63.3019 152.618,63.8019 154.5,64C 152.833,64.3333 151.167,64.6667 149.5,65C 154.823,65.4994 160.156,65.666 165.5,65.5C 165.5,65.8333 165.5,66.1667 165.5,66.5C 160.156,66.334 154.823,66.5006 149.5,67C 156.167,67.6667 156.167,68.3333 149.5,69C 154.823,69.4994 160.156,69.666 165.5,69.5C 165.5,69.8333 165.5,70.1667 165.5,70.5C 160.156,70.334 154.823,70.5006 149.5,71C 156.167,71.6667 156.167,72.3333 149.5,73C 154.823,73.4994 160.156,73.666 165.5,73.5C 165.5,73.8333 165.5,74.1667 165.5,74.5C 160.156,74.334 154.823,74.5006 149.5,75C 156.167,75.6667 156.167,76.3333 149.5,77C 154.823,77.4994 160.156,77.666 165.5,77.5C 165.5,77.8333 165.5,78.1667 165.5,78.5C 160.167,78.5 154.833,78.5 149.5,78.5C 149.5,84.5 149.5,90.5 149.5,96.5C 148.167,85.1667 148.167,73.8333 149.5,62.5 Z"/></g>
<g><path style="opacity:1" fill="#878787" d="M 246.5,72.5 C 247.451,73.9187 247.784,75.5853 247.5,77.5C 242.167,77.5 236.833,77.5 231.5,77.5C 230.314,76.2946 230.314,74.9613 231.5,73.5C 236.695,73.8205 241.695,73.4872 246.5,72.5 Z"/></g>
<g><path style="opacity:1" fill="#414141" d="M 287.5,72.5 C 288.833,75.5 288.833,78.5 287.5,81.5C 285.031,80.6829 282.365,80.1829 279.5,80C 290.167,79.3333 290.167,78.6667 279.5,78C 290.167,77.3333 290.167,76.6667 279.5,76C 290.167,75.3333 290.167,74.6667 279.5,74C 282.365,73.8171 285.031,73.3171 287.5,72.5 Z"/></g>
<g><path style="opacity:1" fill="#414141" d="M 336.5,72.5 C 337.833,75.5 337.833,78.5 336.5,81.5C 334.031,80.6829 331.365,80.1829 328.5,80C 339.167,79.3333 339.167,78.6667 328.5,78C 339.167,77.3333 339.167,76.6667 328.5,76C 339.167,75.3333 339.167,74.6667 328.5,74C 331.365,73.8171 334.031,73.3171 336.5,72.5 Z"/></g>
<g><path style="opacity:1" fill="#676767" d="M 435.5,61.5 C 435.821,67.0262 435.488,72.3595 434.5,77.5C 432.393,76.5318 430.059,76.1984 427.5,76.5C 427.5,76.1667 427.5,75.8333 427.5,75.5C 429.833,75.5 432.167,75.5 434.5,75.5C 434.181,70.6367 434.514,65.97 435.5,61.5 Z"/></g>
<g><path style="opacity:1" fill="#414141" d="M 532.5,72.5 C 533.833,75.5 533.833,78.5 532.5,81.5C 530.031,80.6829 527.365,80.1829 524.5,80C 535.167,79.3333 535.167,78.6667 524.5,78C 535.167,77.3333 535.167,76.6667 524.5,76C 535.167,75.3333 535.167,74.6667 524.5,74C 527.365,73.8171 530.031,73.3171 532.5,72.5 Z"/></g>
<g><path style="opacity:1" fill="#414141" d="M 630.5,72.5 C 631.833,75.5 631.833,78.5 630.5,81.5C 628.031,80.6829 625.365,80.1829 622.5,80C 633.167,79.3333 633.167,78.6667 622.5,78C 633.167,77.3333 633.167,76.6667 622.5,76C 633.167,75.3333 633.167,74.6667 622.5,74C 625.365,73.8171 628.031,73.3171 630.5,72.5 Z"/></g>
<g><path style="opacity:1" fill="#f8f8f8" d="M 165.5,74.5 C 162.359,75.3213 159.025,75.8213 155.5,76C 159.025,76.1787 162.359,76.6787 165.5,77.5C 160.156,77.666 154.823,77.4994 149.5,77C 156.167,76.3333 156.167,75.6667 149.5,75C 154.823,74.5006 160.156,74.334 165.5,74.5 Z"/></g>
<g><path style="opacity:1" fill="#4c4c4c" d="M 231.5,78.5 C 231.5,78.1667 231.5,77.8333 231.5,77.5C 236.833,77.5 242.167,77.5 247.5,77.5C 247.557,78.609 247.89,79.609 248.5,80.5C 245.15,80.665 241.817,80.4983 238.5,80C 241.167,79.6667 243.833,79.3333 246.5,79C 241.511,78.5007 236.511,78.3341 231.5,78.5 Z"/></g>
<g><path style="opacity:1" fill="#878787" d="M 125.5,61.5 C 125.812,73.5803 125.479,85.5803 124.5,97.5C 121.833,97.5 119.167,97.5 116.5,97.5C 116.5,90.1667 116.5,82.8333 116.5,75.5C 119.167,75.5 121.833,75.5 124.5,75.5C 124.181,70.6367 124.514,65.97 125.5,61.5 Z"/></g>
<g><path style="opacity:1" fill="#ededed" d="M 165.5,78.5 C 162.695,79.3195 159.695,79.8195 156.5,80C 159.5,80.3333 162.5,80.6667 165.5,81C 162.833,81.6667 162.833,82.3333 165.5,83C 153.5,83.6667 153.5,84.3333 165.5,85C 162.833,85.6667 162.833,86.3333 165.5,87C 153.5,87.6667 153.5,88.3333 165.5,89C 164.833,89.3333 164.167,89.6667 163.5,90C 164.416,90.2784 165.082,90.7784 165.5,91.5C 162.428,91.1826 159.428,91.5159 156.5,92.5C 157.833,93.8333 157.833,95.1667 156.5,96.5C 159.428,97.4841 162.428,97.8174 165.5,97.5C 165.082,98.2216 164.416,98.7216 163.5,99C 164.167,99.3333 164.833,99.6667 165.5,100C 153.5,100.667 153.5,101.333 165.5,102C 162.833,102.667 162.833,103.333 165.5,104C 153.5,104.667 153.5,105.333 165.5,106C 162.833,106.667 162.833,107.333 165.5,108C 153.5,108.667 153.5,109.333 165.5,110C 162.833,110.667 162.833,111.333 165.5,112C 153.5,112.667 153.5,113.333 165.5,114C 160.177,114.499 154.844,114.666 149.5,114.5C 149.5,108.5 149.5,102.5 149.5,96.5C 149.5,90.5 149.5,84.5 149.5,78.5C 154.833,78.5 160.167,78.5 165.5,78.5 Z"/></g>
<g><path style="opacity:1" fill="#6a6a6a" d="M 206.5,79.5 C 206.5,80.5 206.5,81.5 206.5,82.5C 204.621,82.6068 204.288,82.1068 205.5,81C 202.833,80.6667 200.167,80.3333 197.5,80C 200.482,79.502 203.482,79.3354 206.5,79.5 Z"/></g>
<g><path style="opacity:1" fill="#9a9a9a" d="M 427.5,76.5 C 430.059,76.1984 432.393,76.5318 434.5,77.5C 434.611,78.1174 434.944,78.6174 435.5,79C 438.695,79.1805 441.695,79.6805 444.5,80.5C 438.833,80.5 433.167,80.5 427.5,80.5C 426.314,79.0387 426.314,77.7054 427.5,76.5 Z"/></g>
<g><path style="opacity:1" fill="#646464" d="M 573.5,80.5 C 576.355,79.1968 579.355,79.1968 582.5,80.5C 582.376,81.1067 582.043,81.44 581.5,81.5C 579.052,80.5269 576.385,80.1936 573.5,80.5 Z"/></g>
<g><path style="opacity:1" fill="#6c6c6c" d="M 427.5,80.5 C 434.321,81.3285 441.321,81.8285 448.5,82C 441.321,82.1715 434.321,82.6715 427.5,83.5C 426.167,82.5 426.167,81.5 427.5,80.5 Z"/></g>
<g><path style="opacity:1" fill="#b5b5b5" d="M 679.5,82.5 C 672.018,83.492 664.352,83.8254 656.5,83.5C 655.209,82.4583 655.209,81.2917 656.5,80C 658.833,79.8333 661.167,79.6667 663.5,79.5C 667.81,80.1157 671.976,80.1157 676,79.5C 677.5,79.8333 679,80.1667 680.5,80.5C 680.137,81.1835 679.804,81.8501 679.5,82.5 Z"/></g>
<g><path style="opacity:1" fill="#6e6e6e" d="M 557.5,81.5 C 562.511,81.3341 567.511,81.5007 572.5,82C 567.649,82.1745 562.982,82.6745 558.5,83.5C 557.662,83.1583 557.328,82.4916 557.5,81.5 Z"/></g>
<g><path style="opacity:1" fill="#5f5f5f" d="M 26.5,78.5 C 27.8073,84.7343 27.8073,91.0676 26.5,97.5C 23.8333,97.5 21.1667,97.5 18.5,97.5C 18.5,95.5 18.5,93.5 18.5,91.5C 29.1461,91.3293 29.1461,90.8293 18.5,90C 29.1667,89.3333 29.1667,88.6667 18.5,88C 29.1667,87.3333 29.1667,86.6667 18.5,86C 29.1667,85.3333 29.1667,84.6667 18.5,84C 29.1667,83.3333 29.1667,82.6667 18.5,82C 29.1667,81.3333 29.1667,80.6667 18.5,80C 21.3647,79.8171 24.0314,79.3171 26.5,78.5 Z"/></g>
<g><path style="opacity:1" fill="#f3f3f3" d="M 573.5,80.5 C 576.385,80.1936 579.052,80.5269 581.5,81.5C 570.833,81.8333 570.833,82.1667 581.5,82.5C 574.018,83.492 566.352,83.8254 558.5,83.5C 562.982,82.6745 567.649,82.1745 572.5,82C 567.511,81.5007 562.511,81.3341 557.5,81.5C 557.866,80.3054 558.699,79.6387 560,79.5C 564.446,80.4121 568.946,80.7454 573.5,80.5 Z"/></g>
<g><path style="opacity:1" fill="#6a6a6a" d="M 206.5,83.5 C 206.5,84.5 206.5,85.5 206.5,86.5C 204.621,86.6068 204.288,86.1068 205.5,85C 202.833,84.6667 200.167,84.3333 197.5,84C 200.482,83.502 203.482,83.3354 206.5,83.5 Z"/></g>
<g><path style="opacity:1" fill="#646464" d="M 287.5,82.5 C 288.833,83.5 288.833,84.5 287.5,85.5C 285.031,84.6829 282.365,84.1829 279.5,84C 282.365,83.8171 285.031,83.3171 287.5,82.5 Z"/></g>
<g><path style="opacity:1" fill="#646464" d="M 336.5,82.5 C 337.833,83.5 337.833,84.5 336.5,85.5C 334.031,84.6829 331.365,84.1829 328.5,84C 331.365,83.8171 334.031,83.3171 336.5,82.5 Z"/></g>
<g><path style="opacity:1" fill="#646464" d="M 532.5,82.5 C 533.833,83.5 533.833,84.5 532.5,85.5C 530.031,84.6829 527.365,84.1829 524.5,84C 527.365,83.8171 530.031,83.3171 532.5,82.5 Z"/></g>
<g><path style="opacity:1" fill="#696969" d="M 581.5,82.5 C 582.833,83.5 582.833,84.5 581.5,85.5C 574.018,84.508 566.352,84.1746 558.5,84.5C 558.5,84.1667 558.5,83.8333 558.5,83.5C 566.352,83.8254 574.018,83.492 581.5,82.5 Z"/></g>
<g><path style="opacity:1" fill="#646464" d="M 630.5,82.5 C 631.833,83.5 631.833,84.5 630.5,85.5C 628.031,84.6829 625.365,84.1829 622.5,84C 625.365,83.8171 628.031,83.3171 630.5,82.5 Z"/></g>
<g><path style="opacity:1" fill="#6f6f6f" d="M 679.5,82.5 C 680.833,83.5 680.833,84.5 679.5,85.5C 672.018,84.508 664.352,84.1746 656.5,84.5C 656.5,84.1667 656.5,83.8333 656.5,83.5C 664.352,83.8254 672.018,83.492 679.5,82.5 Z"/></g>
<g><path style="opacity:1" fill="#6c6c6c" d="M 427.5,84.5 C 434.321,85.3285 441.321,85.8285 448.5,86C 441.321,86.1715 434.321,86.6715 427.5,87.5C 426.167,86.5 426.167,85.5 427.5,84.5 Z"/></g>
<g><path style="opacity:1" fill="#cbcbcb" d="M 656.5,84.5 C 664.352,84.1746 672.018,84.508 679.5,85.5C 679.5,85.8333 679.5,86.1667 679.5,86.5C 672.018,87.492 664.352,87.8254 656.5,87.5C 655.167,86.5 655.167,85.5 656.5,84.5 Z"/></g>
<g><path style="opacity:1" fill="#6e6e6e" d="M 557.5,85.5 C 562.511,85.3341 567.511,85.5007 572.5,86C 567.649,86.1745 562.982,86.6745 558.5,87.5C 557.662,87.1583 557.328,86.4916 557.5,85.5 Z"/></g>
<g><path style="opacity:1" fill="#f8f8f8" d="M 557.5,85.5 C 557.5,84.8333 557.833,84.5 558.5,84.5C 566.352,84.1746 574.018,84.508 581.5,85.5C 570.833,85.8333 570.833,86.1667 581.5,86.5C 574.018,87.492 566.352,87.8254 558.5,87.5C 562.982,86.6745 567.649,86.1745 572.5,86C 567.511,85.5007 562.511,85.3341 557.5,85.5 Z"/></g>
<g><path style="opacity:1" fill="#6a6a6a" d="M 206.5,87.5 C 206.5,88.5 206.5,89.5 206.5,90.5C 204.621,90.6068 204.288,90.1068 205.5,89C 202.833,88.6667 200.167,88.3333 197.5,88C 200.482,87.502 203.482,87.3354 206.5,87.5 Z"/></g>
<g><path style="opacity:1" fill="#646464" d="M 287.5,86.5 C 288.833,87.5 288.833,88.5 287.5,89.5C 285.031,88.6829 282.365,88.1829 279.5,88C 282.365,87.8171 285.031,87.3171 287.5,86.5 Z"/></g>
<g><path style="opacity:1" fill="#646464" d="M 336.5,86.5 C 337.833,87.5 337.833,88.5 336.5,89.5C 334.031,88.6829 331.365,88.1829 328.5,88C 331.365,87.8171 334.031,87.3171 336.5,86.5 Z"/></g>
<g><path style="opacity:1" fill="#646464" d="M 532.5,86.5 C 533.833,87.5 533.833,88.5 532.5,89.5C 530.031,88.6829 527.365,88.1829 524.5,88C 527.365,87.8171 530.031,87.3171 532.5,86.5 Z"/></g>
<g><path style="opacity:1" fill="#696969" d="M 581.5,86.5 C 582.833,87.5 582.833,88.5 581.5,89.5C 574.018,88.508 566.352,88.1746 558.5,88.5C 558.5,88.1667 558.5,87.8333 558.5,87.5C 566.352,87.8254 574.018,87.492 581.5,86.5 Z"/></g>
<g><path style="opacity:1" fill="#646464" d="M 630.5,86.5 C 631.833,87.5 631.833,88.5 630.5,89.5C 628.031,88.6829 625.365,88.1829 622.5,88C 625.365,87.8171 628.031,87.3171 630.5,86.5 Z"/></g>
<g><path style="opacity:1" fill="#6f6f6f" d="M 679.5,86.5 C 680.833,87.5 680.833,88.5 679.5,89.5C 672.018,88.508 664.352,88.1746 656.5,88.5C 656.5,88.1667 656.5,87.8333 656.5,87.5C 664.352,87.8254 672.018,87.492 679.5,86.5 Z"/></g>
<g><path style="opacity:1" fill="#6c6c6c" d="M 427.5,88.5 C 434.321,89.3285 441.321,89.8285 448.5,90C 441.321,90.1715 434.321,90.6715 427.5,91.5C 426.167,90.5 426.167,89.5 427.5,88.5 Z"/></g>
<g><path style="opacity:1" fill="#cacaca" d="M 656.5,88.5 C 664.352,88.1746 672.018,88.508 679.5,89.5C 680.686,90.9613 680.686,92.2946 679.5,93.5C 672.24,91.5349 664.573,90.8682 656.5,91.5C 655.167,90.5 655.167,89.5 656.5,88.5 Z"/></g>
<g><path style="opacity:1" fill="#6e6e6e" d="M 557.5,89.5 C 562.511,89.3341 567.511,89.5007 572.5,90C 567.649,90.1745 562.982,90.6745 558.5,91.5C 557.662,91.1583 557.328,90.4916 557.5,89.5 Z"/></g>
<g><path style="opacity:1" fill="#f8f8f8" d="M 557.5,89.5 C 557.5,88.8333 557.833,88.5 558.5,88.5C 566.352,88.1746 574.018,88.508 581.5,89.5C 570.833,89.8333 570.833,90.1667 581.5,90.5C 574.018,91.492 566.352,91.8254 558.5,91.5C 562.982,90.6745 567.649,90.1745 572.5,90C 567.511,89.5007 562.511,89.3341 557.5,89.5 Z"/></g>
<g><path style="opacity:1" fill="#707070" d="M 165.5,91.5 C 165.5,93.5 165.5,95.5 165.5,97.5C 162.428,97.8174 159.428,97.4841 156.5,96.5C 157.833,95.1667 157.833,93.8333 156.5,92.5C 159.428,91.5159 162.428,91.1826 165.5,91.5 Z"/></g>
<g><path style="opacity:1" fill="#6b6b6b" d="M 206.5,91.5 C 206.5,93.5 206.5,95.5 206.5,97.5C 203.428,97.8174 200.428,97.4841 197.5,96.5C 198.833,95.1667 198.833,93.8333 197.5,92.5C 200.428,91.5159 203.428,91.1826 206.5,91.5 Z"/></g>
<g><path style="opacity:1" fill="#6a6a6a" d="M 581.5,90.5 C 581.647,92.718 581.98,95.0513 582.5,97.5C 574.514,96.901 566.514,96.5676 558.5,96.5C 558.5,96.1667 558.5,95.8333 558.5,95.5C 563.844,95.666 569.177,95.4994 574.5,95C 574.043,94.586 573.709,94.086 573.5,93.5C 568.544,92.5059 563.544,92.1725 558.5,92.5C 558.5,92.1667 558.5,91.8333 558.5,91.5C 566.352,91.8254 574.018,91.492 581.5,90.5 Z"/></g>
<g><path style="opacity:1" fill="#6c6c6c" d="M 427.5,92.5 C 434.321,93.3285 441.321,93.8285 448.5,94C 441.321,94.1715 434.321,94.6715 427.5,95.5C 426.167,94.5 426.167,93.5 427.5,92.5 Z"/></g>
<g><path style="opacity:1" fill="#cecece" d="M 656.5,92.5 C 661.544,92.1725 666.544,92.5059 671.5,93.5C 671.709,94.086 672.043,94.586 672.5,95C 667.177,95.4994 661.844,95.666 656.5,95.5C 655.167,94.5 655.167,93.5 656.5,92.5 Z"/></g>
<g><path style="opacity:1" fill="#6b6b6b" d="M 287.5,90.5 C 287.81,92.8564 287.81,95.1897 287.5,97.5C 284.753,97.8134 282.086,97.48 279.5,96.5C 280.833,95.1667 280.833,93.8333 279.5,92.5C 282.306,91.8324 284.972,91.1657 287.5,90.5 Z"/></g>
<g><path style="opacity:1" fill="#6b6b6b" d="M 336.5,90.5 C 336.81,92.8564 336.81,95.1897 336.5,97.5C 333.753,97.8134 331.086,97.48 328.5,96.5C 329.833,95.1667 329.833,93.8333 328.5,92.5C 331.306,91.8324 333.972,91.1657 336.5,90.5 Z"/></g>
<g><path style="opacity:1" fill="#6b6b6b" d="M 532.5,90.5 C 532.81,92.8564 532.81,95.1897 532.5,97.5C 529.753,97.8134 527.086,97.48 524.5,96.5C 525.833,95.1667 525.833,93.8333 524.5,92.5C 527.306,91.8324 529.972,91.1657 532.5,90.5 Z"/></g>
<g><path style="opacity:1" fill="#6e6e6e" d="M 557.5,93.5 C 562.511,93.3341 567.511,93.5007 572.5,94C 567.649,94.1745 562.982,94.6745 558.5,95.5C 557.662,95.1583 557.328,94.4916 557.5,93.5 Z"/></g>
<g><path style="opacity:1" fill="#6b6b6b" d="M 630.5,90.5 C 630.81,92.8564 630.81,95.1897 630.5,97.5C 627.753,97.8134 625.086,97.48 622.5,96.5C 623.833,95.1667 623.833,93.8333 622.5,92.5C 625.306,91.8324 627.972,91.1657 630.5,90.5 Z"/></g>
<g><path style="opacity:1" fill="#f7f7f7" d="M 557.5,93.5 C 557.5,92.8333 557.833,92.5 558.5,92.5C 563.544,92.1725 568.544,92.5059 573.5,93.5C 573.709,94.086 574.043,94.586 574.5,95C 569.177,95.4994 563.844,95.666 558.5,95.5C 562.982,94.6745 567.649,94.1745 572.5,94C 567.511,93.5007 562.511,93.3341 557.5,93.5 Z"/></g>
<g><path style="opacity:1" fill="#b1b1b1" d="M 395.5,95.5 C 394.87,101.934 394.203,108.267 393.5,114.5C 392.877,107.745 393.544,101.412 395.5,95.5 Z"/></g>
<g><path style="opacity:1" fill="#696969" d="M 656.5,92.5 C 656.5,92.1667 656.5,91.8333 656.5,91.5C 664.573,90.8682 672.24,91.5349 679.5,93.5C 679.833,94.8333 680.167,96.1667 680.5,97.5C 672.514,96.901 664.514,96.5676 656.5,96.5C 656.5,96.1667 656.5,95.8333 656.5,95.5C 661.844,95.666 667.177,95.4994 672.5,95C 672.043,94.586 671.709,94.086 671.5,93.5C 666.544,92.5059 661.544,92.1725 656.5,92.5 Z"/></g>
<g><path style="opacity:1" fill="#6a6a6a" d="M 206.5,100.5 C 206.5,101.5 206.5,102.5 206.5,103.5C 204.621,103.607 204.288,103.107 205.5,102C 202.833,101.667 200.167,101.333 197.5,101C 200.482,100.502 203.482,100.335 206.5,100.5 Z"/></g>
<g><path style="opacity:1" fill="#626262" d="M 287.5,97.5 C 288.833,99.1667 288.833,100.833 287.5,102.5C 285.031,101.683 282.365,101.183 279.5,101C 282.167,100.667 284.833,100.333 287.5,100C 285.167,99.6667 282.833,99.3333 280.5,99C 283.036,98.8138 285.369,98.3138 287.5,97.5 Z"/></g>
<g><path style="opacity:1" fill="#626262" d="M 336.5,97.5 C 337.833,99.1667 337.833,100.833 336.5,102.5C 334.031,101.683 331.365,101.183 328.5,101C 331.167,100.667 333.833,100.333 336.5,100C 334.167,99.6667 331.833,99.3333 329.5,99C 332.036,98.8138 334.369,98.3138 336.5,97.5 Z"/></g>
<g><path style="opacity:1" fill="#626262" d="M 532.5,97.5 C 533.833,99.1667 533.833,100.833 532.5,102.5C 530.031,101.683 527.365,101.183 524.5,101C 527.167,100.667 529.833,100.333 532.5,100C 530.167,99.6667 527.833,99.3333 525.5,99C 528.036,98.8138 530.369,98.3138 532.5,97.5 Z"/></g>
<g><path style="opacity:1" fill="#626262" d="M 630.5,97.5 C 631.833,99.1667 631.833,100.833 630.5,102.5C 628.031,101.683 625.365,101.183 622.5,101C 625.167,100.667 627.833,100.333 630.5,100C 628.167,99.6667 625.833,99.3333 623.5,99C 626.036,98.8138 628.369,98.3138 630.5,97.5 Z"/></g>
<g><path style="opacity:1" fill="#5d5d5d" d="M 26.5,97.5 C 27.8333,103.167 27.8333,108.833 26.5,114.5C 24.0314,113.683 21.3647,113.183 18.5,113C 29.1667,112.333 29.1667,111.667 18.5,111C 29.1667,110.333 29.1667,109.667 18.5,109C 29.1667,108.333 29.1667,107.667 18.5,107C 29.1667,106.333 29.1667,105.667 18.5,105C 29.1667,104.333 29.1667,103.667 18.5,103C 29.1667,102.333 29.1667,101.667 18.5,101C 29.1667,100.333 29.1667,99.6667 18.5,99C 21.3647,98.8171 24.0314,98.3171 26.5,97.5 Z"/></g>
<g><path style="opacity:1" fill="#5a5a5a" d="M 124.5,97.5 C 125.833,101.833 125.833,106.167 124.5,110.5C 122.031,109.683 119.365,109.183 116.5,109C 127.167,108.333 127.167,107.667 116.5,107C 127.167,106.333 127.167,105.667 116.5,105C 127.167,104.333 127.167,103.667 116.5,103C 127.167,102.333 127.167,101.667 116.5,101C 127.167,100.333 127.167,99.6667 116.5,99C 119.365,98.8171 122.031,98.3171 124.5,97.5 Z"/></g>
<g><path style="opacity:1" fill="#6a6a6a" d="M 206.5,104.5 C 206.5,105.5 206.5,106.5 206.5,107.5C 204.621,107.607 204.288,107.107 205.5,106C 202.833,105.667 200.167,105.333 197.5,105C 200.482,104.502 203.482,104.335 206.5,104.5 Z"/></g>
<g><path style="opacity:1" fill="#646464" d="M 287.5,103.5 C 288.833,104.5 288.833,105.5 287.5,106.5C 285.031,105.683 282.365,105.183 279.5,105C 282.365,104.817 285.031,104.317 287.5,103.5 Z"/></g>
<g><path style="opacity:1" fill="#646464" d="M 336.5,103.5 C 337.833,104.5 337.833,105.5 336.5,106.5C 334.031,105.683 331.365,105.183 328.5,105C 331.365,104.817 334.031,104.317 336.5,103.5 Z"/></g>
<g><path style="opacity:1" fill="#646464" d="M 532.5,103.5 C 533.833,104.5 533.833,105.5 532.5,106.5C 530.031,105.683 527.365,105.183 524.5,105C 527.365,104.817 530.031,104.317 532.5,103.5 Z"/></g>
<g><path style="opacity:1" fill="#646464" d="M 630.5,103.5 C 631.833,104.5 631.833,105.5 630.5,106.5C 628.031,105.683 625.365,105.183 622.5,105C 625.365,104.817 628.031,104.317 630.5,103.5 Z"/></g>
<g><path style="opacity:1" fill="#6a6a6a" d="M 206.5,108.5 C 206.5,109.5 206.5,110.5 206.5,111.5C 204.621,111.607 204.288,111.107 205.5,110C 202.833,109.667 200.167,109.333 197.5,109C 200.482,108.502 203.482,108.335 206.5,108.5 Z"/></g>
<g><path style="opacity:1" fill="#646464" d="M 287.5,107.5 C 288.833,108.5 288.833,109.5 287.5,110.5C 285.031,109.683 282.365,109.183 279.5,109C 282.365,108.817 285.031,108.317 287.5,107.5 Z"/></g>
<g><path style="opacity:1" fill="#646464" d="M 336.5,107.5 C 337.833,108.5 337.833,109.5 336.5,110.5C 334.031,109.683 331.365,109.183 328.5,109C 331.365,108.817 334.031,108.317 336.5,107.5 Z"/></g>
<g><path style="opacity:1" fill="#646464" d="M 532.5,107.5 C 533.833,108.5 533.833,109.5 532.5,110.5C 530.031,109.683 527.365,109.183 524.5,109C 527.365,108.817 530.031,108.317 532.5,107.5 Z"/></g>
<g><path style="opacity:1" fill="#646464" d="M 630.5,107.5 C 631.833,108.5 631.833,109.5 630.5,110.5C 628.031,109.683 625.365,109.183 622.5,109C 625.365,108.817 628.031,108.317 630.5,107.5 Z"/></g>
<g><path style="opacity:1" fill="#707070" d="M 206.5,112.5 C 206.672,113.492 206.338,114.158 205.5,114.5C 203.031,113.683 200.365,113.183 197.5,113C 200.482,112.502 203.482,112.335 206.5,112.5 Z"/></g>
<g><path style="opacity:1" fill="#646464" d="M 287.5,111.5 C 288.833,112.5 288.833,113.5 287.5,114.5C 285.031,113.683 282.365,113.183 279.5,113C 282.365,112.817 285.031,112.317 287.5,111.5 Z"/></g>
<g><path style="opacity:1" fill="#646464" d="M 336.5,111.5 C 337.833,112.5 337.833,113.5 336.5,114.5C 334.031,113.683 331.365,113.183 328.5,113C 331.365,112.817 334.031,112.317 336.5,111.5 Z"/></g>
<g><path style="opacity:1" fill="#646464" d="M 532.5,111.5 C 533.833,112.5 533.833,113.5 532.5,114.5C 530.031,113.683 527.365,113.183 524.5,113C 527.365,112.817 530.031,112.317 532.5,111.5 Z"/></g>
<g><path style="opacity:1" fill="#646464" d="M 630.5,111.5 C 631.833,112.5 631.833,113.5 630.5,114.5C 628.031,113.683 625.365,113.183 622.5,113C 625.365,112.817 628.031,112.317 630.5,111.5 Z"/></g>
<g><path style="opacity:1" fill="#050505" d="M 116.5,75.5 C 116.5,82.8333 116.5,90.1667 116.5,97.5C 113.833,97.5 111.167,97.5 108.5,97.5C 108.5,103.167 108.5,108.833 108.5,114.5C 105.833,114.5 103.167,114.5 100.5,114.5C 100.5,120.5 100.5,126.5 100.5,132.5C 70.1648,132.667 39.8315,132.5 9.5,132C 12.5,131.667 15.5,131.333 18.5,131C 15.8333,130.333 15.8333,129.667 18.5,129C 6.51833,128.17 6.51833,127.67 18.5,127.5C 18.5,123.167 18.5,118.833 18.5,114.5C 21.1667,114.5 23.8333,114.5 26.5,114.5C 27.8333,108.833 27.8333,103.167 26.5,97.5C 27.8073,91.0676 27.8073,84.7343 26.5,78.5C 15.8539,78.3293 15.8539,77.8293 26.5,77C 15.8539,76.1707 15.8539,75.6707 26.5,75.5C 27.8333,71.1667 27.8333,66.8333 26.5,62.5C 27.8195,50.7353 27.8195,39.0686 26.5,27.5C 20.8236,27.6661 15.1569,27.4994 9.5,27C 12.5,26.6667 15.5,26.3333 18.5,26C 15.8333,25.3333 15.8333,24.6667 18.5,24C 6.51833,23.1698 6.51833,22.6698 18.5,22.5C 18.5,18.1667 18.5,13.8333 18.5,9.5C 45.8333,9.5 73.1667,9.5 100.5,9.5C 100.5,15.1667 100.5,20.8333 100.5,26.5C 103.167,26.5 105.833,26.5 108.5,26.5C 108.5,32.5 108.5,38.5 108.5,44.5C 111.167,44.5 113.833,44.5 116.5,44.5C 116.5,54.8333 116.5,65.1667 116.5,75.5 Z"/></g>
<g><path style="opacity:1" fill="#414141" d="M 90.5,95.5 C 88.7354,96.4614 86.7354,96.7947 84.5,96.5C 84.8229,102.69 84.4896,108.69 83.5,114.5C 83.5,108.167 83.5,101.833 83.5,95.5C 85.8333,95.5 88.1667,95.5 90.5,95.5 Z"/></g>
<g><path style="opacity:1" fill="#636363" d="M 91.5,90.5 C 92.8333,91.5 92.8333,92.5 91.5,93.5C 89.0314,92.6829 86.3647,92.1829 83.5,92C 86.3647,91.8171 89.0314,91.3171 91.5,90.5 Z"/></g>
<g><path style="opacity:1" fill="#636363" d="M 91.5,86.5 C 92.8333,87.5 92.8333,88.5 91.5,89.5C 89.0314,88.6829 86.3647,88.1829 83.5,88C 86.3647,87.8171 89.0314,87.3171 91.5,86.5 Z"/></g>
<g><path style="opacity:1" fill="#636363" d="M 91.5,82.5 C 92.8333,83.5 92.8333,84.5 91.5,85.5C 89.0314,84.6829 86.3647,84.1829 83.5,84C 86.3647,83.8171 89.0314,83.3171 91.5,82.5 Z"/></g>
<g><path style="opacity:1" fill="#4a4a4a" d="M 91.5,72.5 C 92.8333,75.5 92.8333,78.5 91.5,81.5C 89.0314,80.6829 86.3647,80.1829 83.5,80C 94.1667,79.3333 94.1667,78.6667 83.5,78C 94.1667,77.3333 94.1667,76.6667 83.5,76C 94.1667,75.3333 94.1667,74.6667 83.5,74C 86.3647,73.8171 89.0314,73.3171 91.5,72.5 Z"/></g>
<g><path style="opacity:1" fill="#636363" d="M 91.5,68.5 C 92.8333,69.5 92.8333,70.5 91.5,71.5C 89.0314,70.6829 86.3647,70.1829 83.5,70C 86.3647,69.8171 89.0314,69.3171 91.5,68.5 Z"/></g>
<g><path style="opacity:1" fill="#636363" d="M 91.5,55.5 C 92.8333,59.5 92.8333,63.5 91.5,67.5C 89.0314,66.6829 86.3647,66.1829 83.5,66C 86.146,65.5026 88.8127,65.3359 91.5,65.5C 91.5,64.5 91.5,63.5 91.5,62.5C 86.1409,62.3303 80.8076,61.8303 75.5,61C 78.5,60.6667 81.5,60.3333 84.5,60C 81.9723,57.9426 78.9723,56.9426 75.5,57C 81.0158,56.8267 86.3491,56.3267 91.5,55.5 Z"/></g>
<g><path style="opacity:1" fill="#656565" d="M 91.5,51.5 C 92.8333,52.5 92.8333,53.5 91.5,54.5C 86.3491,53.6733 81.0158,53.1733 75.5,53C 81.0158,52.8267 86.3491,52.3267 91.5,51.5 Z"/></g>
<g><path style="opacity:1" fill="#656565" d="M 91.5,47.5 C 92.8333,48.5 92.8333,49.5 91.5,50.5C 86.3491,49.6733 81.0158,49.1733 75.5,49C 81.0158,48.8267 86.3491,48.3267 91.5,47.5 Z"/></g>
<g><path style="opacity:1" fill="#f4f4f4" d="M 90.5,45.5 C 92.6773,44.4958 93.0107,45.1625 91.5,47.5C 86.3491,48.3267 81.0158,48.8267 75.5,49C 81.0158,49.1733 86.3491,49.6733 91.5,50.5C 91.5,50.8333 91.5,51.1667 91.5,51.5C 86.3491,52.3267 81.0158,52.8267 75.5,53C 81.0158,53.1733 86.3491,53.6733 91.5,54.5C 91.5,54.8333 91.5,55.1667 91.5,55.5C 86.3491,56.3267 81.0158,56.8267 75.5,57C 78.9723,56.9426 81.9723,57.9426 84.5,60C 81.5,60.3333 78.5,60.6667 75.5,61C 80.8076,61.8303 86.1409,62.3303 91.5,62.5C 91.5,63.5 91.5,64.5 91.5,65.5C 88.8127,65.3359 86.146,65.5026 83.5,66C 86.3647,66.1829 89.0314,66.6829 91.5,67.5C 91.5,67.8333 91.5,68.1667 91.5,68.5C 89.0314,69.3171 86.3647,69.8171 83.5,70C 86.3647,70.1829 89.0314,70.6829 91.5,71.5C 91.5,71.8333 91.5,72.1667 91.5,72.5C 89.0314,73.3171 86.3647,73.8171 83.5,74C 94.1667,74.6667 94.1667,75.3333 83.5,76C 94.1667,76.6667 94.1667,77.3333 83.5,78C 94.1667,78.6667 94.1667,79.3333 83.5,80C 86.3647,80.1829 89.0314,80.6829 91.5,81.5C 91.5,81.8333 91.5,82.1667 91.5,82.5C 89.0314,83.3171 86.3647,83.8171 83.5,84C 86.3647,84.1829 89.0314,84.6829 91.5,85.5C 91.5,85.8333 91.5,86.1667 91.5,86.5C 89.0314,87.3171 86.3647,87.8171 83.5,88C 86.3647,88.1829 89.0314,88.6829 91.5,89.5C 91.5,89.8333 91.5,90.1667 91.5,90.5C 89.0314,91.3171 86.3647,91.8171 83.5,92C 86.3647,92.1829 89.0314,92.6829 91.5,93.5C 93.0107,95.8375 92.6773,96.5042 90.5,95.5C 88.1667,95.5 85.8333,95.5 83.5,95.5C 83.5,101.833 83.5,108.167 83.5,114.5C 72.8333,114.5 62.1667,114.5 51.5,114.5C 51.5,96.8333 51.5,79.1667 51.5,61.5C 51.5,55.5 51.5,49.5 51.5,43.5C 62.1719,43.3335 72.8385,43.5002 83.5,44C 80.8333,44.3333 78.1667,44.6667 75.5,45C 80.4889,45.4993 85.4889,45.6659 90.5,45.5 Z"/></g>
<g><path style="opacity:1" fill="#dedede" d="M 83.5,40.5 C 72.8333,40.8333 72.8333,41.1667 83.5,41.5C 73.008,42.6588 62.3414,42.8255 51.5,42C 58.1667,41.3333 58.1667,40.6667 51.5,40C 62.3414,39.1745 73.008,39.3412 83.5,40.5 Z"/></g>
<g><path style="opacity:1" fill="#535353" d="M 51.5,27.5 C 52.9516,28.3019 54.6183,28.8019 56.5,29C 54.8333,29.3333 53.1667,29.6667 51.5,30C 61.828,30.4998 72.1613,30.6665 82.5,30.5C 82.5,30.8333 82.5,31.1667 82.5,31.5C 72.1613,31.3335 61.828,31.5002 51.5,32C 58.1667,32.6667 58.1667,33.3333 51.5,34C 62.3414,34.8255 73.008,34.6588 83.5,33.5C 84.8333,34.5 84.8333,35.5 83.5,36.5C 73.008,35.3412 62.3414,35.1745 51.5,36C 58.1667,36.6667 58.1667,37.3333 51.5,38C 62.3414,38.8255 73.008,38.6588 83.5,37.5C 84.8333,38.5 84.8333,39.5 83.5,40.5C 73.008,39.3412 62.3414,39.1745 51.5,40C 58.1667,40.6667 58.1667,41.3333 51.5,42C 62.3414,42.8255 73.008,42.6588 83.5,41.5C 84.404,42.209 84.7373,43.209 84.5,44.5C 86.7354,44.2053 88.7354,44.5386 90.5,45.5C 85.4889,45.6659 80.4889,45.4993 75.5,45C 78.1667,44.6667 80.8333,44.3333 83.5,44C 72.8385,43.5002 62.1719,43.3335 51.5,43.5C 51.5,49.5 51.5,55.5 51.5,61.5C 50.1667,50.1667 50.1667,38.8333 51.5,27.5 Z"/></g>
<g><path style="opacity:1" fill="#d7d7d7" d="M 83.5,36.5 C 83.5,36.8333 83.5,37.1667 83.5,37.5C 73.008,38.6588 62.3414,38.8255 51.5,38C 58.1667,37.3333 58.1667,36.6667 51.5,36C 62.3414,35.1745 73.008,35.3412 83.5,36.5 Z"/></g>
<g><path style="opacity:1" fill="#d7d7d7" d="M 82.5,31.5 C 83.3382,31.8417 83.6716,32.5084 83.5,33.5C 73.008,34.6588 62.3414,34.8255 51.5,34C 58.1667,33.3333 58.1667,32.6667 51.5,32C 61.828,31.5002 72.1613,31.3335 82.5,31.5 Z"/></g>
<g><path style="opacity:1" fill="#d7d7d7" d="M 51.5,27.5 C 62.1667,27.5 72.8333,27.5 83.5,27.5C 83.7373,28.791 83.404,29.791 82.5,30.5C 72.1613,30.6665 61.828,30.4998 51.5,30C 53.1667,29.6667 54.8333,29.3333 56.5,29C 54.6183,28.8019 52.9516,28.3019 51.5,27.5 Z"/></g>
<g><path style="opacity:1" fill="#5d5d5d" d="M 125.5,115.5 C 128.024,114.2 130.691,114.2 133.5,115.5C 133.376,116.107 133.043,116.44 132.5,116.5C 130.393,115.532 128.059,115.198 125.5,115.5 Z"/></g>
<g><path style="opacity:1" fill="#616161" d="M 132.5,117.5 C 133.833,118.5 133.833,119.5 132.5,120.5C 127.349,119.673 122.016,119.173 116.5,119C 122.016,118.827 127.349,118.327 132.5,117.5 Z"/></g>
<g><path style="opacity:1" fill="#616161" d="M 132.5,121.5 C 133.833,122.5 133.833,123.5 132.5,124.5C 127.349,123.673 122.016,123.173 116.5,123C 122.016,122.827 127.349,122.327 132.5,121.5 Z"/></g>
<g><path style="opacity:1" fill="#5e5e5e" d="M 280.5,114.5 C 280.5,120.5 280.5,126.5 280.5,132.5C 277.482,132.665 274.482,132.498 271.5,132C 274.146,131.503 276.813,131.336 279.5,131.5C 279.5,130.5 279.5,129.5 279.5,128.5C 268.833,128.167 268.833,127.833 279.5,127.5C 279.182,122.968 279.515,118.634 280.5,114.5 Z"/></g>
<g><path style="opacity:1" fill="#606060" d="M 329.5,114.5 C 329.5,120.5 329.5,126.5 329.5,132.5C 326.833,132.5 324.167,132.5 321.5,132.5C 321.5,132.167 321.5,131.833 321.5,131.5C 323.833,131.5 326.167,131.5 328.5,131.5C 328.5,130.5 328.5,129.5 328.5,128.5C 326.167,128.5 323.833,128.5 321.5,128.5C 321.5,128.167 321.5,127.833 321.5,127.5C 323.833,127.5 326.167,127.5 328.5,127.5C 328.182,122.968 328.515,118.634 329.5,114.5 Z"/></g>
<g><path style="opacity:1" fill="#5e5e5e" d="M 525.5,114.5 C 525.5,120.5 525.5,126.5 525.5,132.5C 522.482,132.665 519.482,132.498 516.5,132C 519.146,131.503 521.813,131.336 524.5,131.5C 524.5,130.5 524.5,129.5 524.5,128.5C 513.833,128.167 513.833,127.833 524.5,127.5C 524.182,122.968 524.515,118.634 525.5,114.5 Z"/></g>
<g><path style="opacity:1" fill="#5e5e5e" d="M 623.5,114.5 C 623.5,120.5 623.5,126.5 623.5,132.5C 620.482,132.665 617.482,132.498 614.5,132C 617.146,131.503 619.813,131.336 622.5,131.5C 622.5,130.5 622.5,129.5 622.5,128.5C 611.833,128.167 611.833,127.833 622.5,127.5C 622.182,122.968 622.515,118.634 623.5,114.5 Z"/></g>
<g><path style="opacity:1" fill="#6d6d6d" d="M 131.5,126.5 C 132.833,128.5 132.833,130.5 131.5,132.5C 126.481,132.248 121.481,131.748 116.5,131C 128.5,130.333 128.5,129.667 116.5,129C 127.167,128.333 127.167,127.667 116.5,127C 121.489,126.501 126.489,126.334 131.5,126.5 Z"/></g>
<g><path style="opacity:1" fill="#cfcfcf" d="M 321.5,128.5 C 323.833,128.5 326.167,128.5 328.5,128.5C 328.5,129.5 328.5,130.5 328.5,131.5C 326.167,131.5 323.833,131.5 321.5,131.5C 320.167,130.5 320.167,129.5 321.5,128.5 Z"/></g>
</svg>
